<mxfile host="Electron" modified="2023-06-02T02:18:56.493Z" agent="Mozilla/5.0 (Windows NT 10.0; Win64; x64) AppleWebKit/537.36 (KHTML, like Gecko) draw.io/21.2.8 Chrome/112.0.5615.165 Electron/24.2.0 Safari/537.36" etag="Rww8tMaRONsPf4E8G587" version="21.2.8" type="device" pages="7">
  <diagram id="nZnQqyfa8BK5mpTW1zpi" name="タイトル">
    <mxGraphModel dx="949" dy="725" grid="0" gridSize="10" guides="1" tooltips="1" connect="1" arrows="1" fold="1" page="1" pageScale="1" pageWidth="1654" pageHeight="1169" background="none" math="0" shadow="0">
      <root>
        <mxCell id="0" />
        <mxCell id="1" parent="0" />
        <mxCell id="yOD7umVcW9ysxc53NVaC-1" value="&lt;b style=&quot;&quot;&gt;&lt;font style=&quot;font-size: 48px;&quot;&gt;うさぎやネットワーク情報&lt;/font&gt;&lt;/b&gt;" style="rounded=0;whiteSpace=wrap;html=1;dashed=1;dashPattern=1 2;strokeColor=none;fillColor=none;" parent="1" vertex="1">
          <mxGeometry x="501" y="554" width="651" height="60" as="geometry" />
        </mxCell>
      </root>
    </mxGraphModel>
  </diagram>
  <diagram name="タイトル-構成図" id="m8bnC0-_GVyZE9ZZJkzJ">
    <mxGraphModel dx="949" dy="725" grid="0" gridSize="10" guides="1" tooltips="1" connect="1" arrows="1" fold="1" page="1" pageScale="1" pageWidth="1654" pageHeight="1169" math="0" shadow="0">
      <root>
        <mxCell id="3UogxYIN3agJ5LG-e5L7-0" />
        <mxCell id="3UogxYIN3agJ5LG-e5L7-1" parent="3UogxYIN3agJ5LG-e5L7-0" />
        <mxCell id="3UogxYIN3agJ5LG-e5L7-2" value="&lt;span style=&quot;font-size: 48px;&quot;&gt;&lt;b&gt;&lt;font color=&quot;#7ea6e0&quot;&gt;～ネットワーク構成図／機器情報～&lt;/font&gt;&lt;br&gt;&lt;/b&gt;&lt;/span&gt;" style="rounded=0;whiteSpace=wrap;html=1;dashed=1;dashPattern=1 2;strokeColor=none;" parent="3UogxYIN3agJ5LG-e5L7-1" vertex="1">
          <mxGeometry x="427" y="555" width="800.54" height="60" as="geometry" />
        </mxCell>
      </root>
    </mxGraphModel>
  </diagram>
  <diagram id="KlRcsmVk2uedUrL9qZEp" name="ネットワーク構成図">
    <mxGraphModel dx="949" dy="725" grid="0" gridSize="10" guides="1" tooltips="1" connect="1" arrows="1" fold="1" page="1" pageScale="1" pageWidth="1654" pageHeight="1169" background="none" math="0" shadow="0">
      <root>
        <mxCell id="0" />
        <mxCell id="nmfrbgwkhF0ShByylipw-3" value="機器配置個所" style="" parent="0" />
        <mxCell id="nmfrbgwkhF0ShByylipw-5" value="総務フロア" style="whiteSpace=wrap;html=1;shape=mxgraph.basic.oval_callout;fillColor=#ffffff;fontColor=#660000;strokeColor=#432D57;fontStyle=1;dashed=1;" parent="nmfrbgwkhF0ShByylipw-3" vertex="1">
          <mxGeometry x="254" y="313" width="100" height="60" as="geometry" />
        </mxCell>
        <mxCell id="nmfrbgwkhF0ShByylipw-7" value="総務フロア" style="whiteSpace=wrap;html=1;shape=mxgraph.basic.oval_callout;fillColor=#ffffff;fontColor=#660000;strokeColor=#432D57;fontStyle=1;dashed=1;" parent="nmfrbgwkhF0ShByylipw-3" vertex="1">
          <mxGeometry x="249" y="625" width="100" height="60" as="geometry" />
        </mxCell>
        <mxCell id="nmfrbgwkhF0ShByylipw-8" value="総務フロア" style="whiteSpace=wrap;html=1;shape=mxgraph.basic.oval_callout;fillColor=#ffffff;fontColor=#660000;strokeColor=#432D57;fontStyle=1;dashed=1;" parent="nmfrbgwkhF0ShByylipw-3" vertex="1">
          <mxGeometry x="761" y="627" width="100" height="60" as="geometry" />
        </mxCell>
        <mxCell id="nmfrbgwkhF0ShByylipw-9" value="システム&lt;br&gt;フロア" style="whiteSpace=wrap;html=1;shape=mxgraph.basic.oval_callout;fillColor=#ffffff;fontColor=#660000;strokeColor=#432D57;fontStyle=1;dashed=1;" parent="nmfrbgwkhF0ShByylipw-3" vertex="1">
          <mxGeometry x="503" y="625" width="100" height="60" as="geometry" />
        </mxCell>
        <mxCell id="nmfrbgwkhF0ShByylipw-10" value="システム&lt;br&gt;フロア" style="whiteSpace=wrap;html=1;shape=mxgraph.basic.oval_callout;fillColor=#ffffff;fontColor=#660000;strokeColor=#432D57;fontStyle=1;dashed=1;" parent="nmfrbgwkhF0ShByylipw-3" vertex="1">
          <mxGeometry x="1051" y="625" width="100" height="60" as="geometry" />
        </mxCell>
        <mxCell id="1" value="ネットワーク配置図" style="" parent="0" />
        <mxCell id="1BUxIJ2rTuqWOybAb3nP-4" style="edgeStyle=orthogonalEdgeStyle;rounded=0;orthogonalLoop=1;jettySize=auto;html=1;entryX=0.5;entryY=1;entryDx=0;entryDy=0;endArrow=none;endFill=0;" parent="1" source="9xwZKjR2LWPpIIxIKV_o-1" target="1BUxIJ2rTuqWOybAb3nP-1" edge="1">
          <mxGeometry relative="1" as="geometry" />
        </mxCell>
        <mxCell id="9xwZKjR2LWPpIIxIKV_o-1" value="Router&lt;br style=&quot;border-color: var(--border-color);&quot;&gt;&lt;br&gt;YAMAHA&lt;br&gt;NVR500" style="rounded=1;whiteSpace=wrap;html=1;fillColor=#E8FEFF;shadow=1;" parent="1" vertex="1">
          <mxGeometry x="140" y="318" width="105.25" height="98" as="geometry" />
        </mxCell>
        <mxCell id="1BUxIJ2rTuqWOybAb3nP-1" value="" style="image;aspect=fixed;perimeter=ellipsePerimeter;html=1;align=center;shadow=0;dashed=0;spacingTop=3;image=img/lib/active_directory/internet_cloud.svg;" parent="1" vertex="1">
          <mxGeometry x="108.77999999999997" y="142" width="167.68" height="105.64" as="geometry" />
        </mxCell>
        <mxCell id="1BUxIJ2rTuqWOybAb3nP-3" value="&lt;span style=&quot;font-size: 9pt; color: black; vertical-align: baseline;&quot;&gt;&lt;font face=&quot;Verdana&quot;&gt;123.220.252.143&lt;/font&gt;&lt;/span&gt;" style="text;whiteSpace=wrap;html=1;fillColor=none;strokeColor=none;rounded=1;perimeterSpacing=0;align=center;verticalAlign=middle;" parent="1" vertex="1">
          <mxGeometry x="194" y="290" width="115" height="28" as="geometry" />
        </mxCell>
        <mxCell id="KMp59yZOzUuIcrv0XD4f-4" style="edgeStyle=orthogonalEdgeStyle;rounded=0;orthogonalLoop=1;jettySize=auto;html=1;entryX=0.5;entryY=1;entryDx=0;entryDy=0;endArrow=none;endFill=0;" parent="1" source="KMp59yZOzUuIcrv0XD4f-1" target="9xwZKjR2LWPpIIxIKV_o-1" edge="1">
          <mxGeometry relative="1" as="geometry" />
        </mxCell>
        <mxCell id="KMp59yZOzUuIcrv0XD4f-1" value="switch" style="rounded=1;whiteSpace=wrap;html=1;fillColor=#CFFFCC;shadow=1;" parent="1" vertex="1">
          <mxGeometry x="162.6300000000001" y="474" width="60" height="57" as="geometry" />
        </mxCell>
        <mxCell id="KMp59yZOzUuIcrv0XD4f-3" value="&lt;span style=&quot;font-size: 9pt; color: black; vertical-align: baseline;&quot;&gt;&lt;font face=&quot;Verdana&quot;&gt;192.168.11.1／24&lt;/font&gt;&lt;/span&gt;" style="text;whiteSpace=wrap;html=1;fillColor=none;strokeColor=none;rounded=1;perimeterSpacing=0;align=center;verticalAlign=middle;" parent="1" vertex="1">
          <mxGeometry x="194" y="424" width="115" height="28" as="geometry" />
        </mxCell>
        <mxCell id="y6NP4ie1jsGtpThXWn4a-1" style="edgeStyle=orthogonalEdgeStyle;rounded=0;orthogonalLoop=1;jettySize=auto;html=1;entryX=0.5;entryY=1;entryDx=0;entryDy=0;startArrow=none;startFill=0;endArrow=none;endFill=0;" parent="1" source="KMp59yZOzUuIcrv0XD4f-5" target="KMp59yZOzUuIcrv0XD4f-1" edge="1">
          <mxGeometry relative="1" as="geometry" />
        </mxCell>
        <mxCell id="KMp59yZOzUuIcrv0XD4f-5" value="Router&lt;br&gt;&lt;br style=&quot;border-color: var(--border-color);&quot;&gt;DEGWIN_NET" style="rounded=1;whiteSpace=wrap;html=1;fillColor=#E8FEFF;shadow=1;" parent="1" vertex="1">
          <mxGeometry x="140" y="628" width="105.25" height="98" as="geometry" />
        </mxCell>
        <mxCell id="y6NP4ie1jsGtpThXWn4a-2" value="&lt;span style=&quot;font-size: 9pt; color: black; vertical-align: baseline;&quot;&gt;&lt;font face=&quot;Verdana&quot;&gt;192.168.11.2&lt;/font&gt;&lt;/span&gt;／24" style="text;whiteSpace=wrap;html=1;fillColor=none;strokeColor=none;rounded=1;perimeterSpacing=0;align=center;verticalAlign=middle;" parent="1" vertex="1">
          <mxGeometry x="194" y="600" width="115" height="28" as="geometry" />
        </mxCell>
        <mxCell id="y6NP4ie1jsGtpThXWn4a-26" style="edgeStyle=orthogonalEdgeStyle;rounded=0;orthogonalLoop=1;jettySize=auto;html=1;endArrow=none;endFill=0;" parent="1" source="y6NP4ie1jsGtpThXWn4a-3" target="y6NP4ie1jsGtpThXWn4a-25" edge="1">
          <mxGeometry relative="1" as="geometry" />
        </mxCell>
        <mxCell id="w5agX83P2Z7wOMzvSA8g-6" style="edgeStyle=orthogonalEdgeStyle;rounded=0;orthogonalLoop=1;jettySize=auto;html=1;endArrow=none;endFill=0;exitX=0.5;exitY=0;exitDx=0;exitDy=0;" parent="1" source="y6NP4ie1jsGtpThXWn4a-3" edge="1">
          <mxGeometry relative="1" as="geometry">
            <mxPoint x="192" y="564" as="targetPoint" />
            <mxPoint x="445" y="635" as="sourcePoint" />
            <Array as="points">
              <mxPoint x="442" y="564" />
            </Array>
          </mxGeometry>
        </mxCell>
        <mxCell id="y6NP4ie1jsGtpThXWn4a-3" value="Router&lt;br&gt;&lt;br style=&quot;border-color: var(--border-color);&quot;&gt;DOM_NET" style="rounded=1;whiteSpace=wrap;html=1;fillColor=#E8FEFF;shadow=1;" parent="1" vertex="1">
          <mxGeometry x="389.3800000000001" y="628" width="105.25" height="98" as="geometry" />
        </mxCell>
        <mxCell id="y6NP4ie1jsGtpThXWn4a-6" value="&lt;span style=&quot;font-size: 9pt; color: black; vertical-align: baseline;&quot;&gt;&lt;font face=&quot;Verdana&quot;&gt;192.168.11.5&lt;/font&gt;&lt;/span&gt;／24" style="text;whiteSpace=wrap;html=1;fillColor=none;strokeColor=none;rounded=1;perimeterSpacing=0;align=center;verticalAlign=middle;" parent="1" vertex="1">
          <mxGeometry x="447.3800000000001" y="601" width="115" height="28" as="geometry" />
        </mxCell>
        <mxCell id="y6NP4ie1jsGtpThXWn4a-23" style="edgeStyle=orthogonalEdgeStyle;rounded=0;orthogonalLoop=1;jettySize=auto;html=1;endArrow=none;endFill=0;" parent="1" source="y6NP4ie1jsGtpThXWn4a-7" target="y6NP4ie1jsGtpThXWn4a-22" edge="1">
          <mxGeometry relative="1" as="geometry" />
        </mxCell>
        <mxCell id="w5agX83P2Z7wOMzvSA8g-5" style="edgeStyle=orthogonalEdgeStyle;rounded=0;orthogonalLoop=1;jettySize=auto;html=1;endArrow=none;endFill=0;exitX=0.5;exitY=0;exitDx=0;exitDy=0;" parent="1" source="y6NP4ie1jsGtpThXWn4a-7" edge="1">
          <mxGeometry relative="1" as="geometry">
            <mxPoint x="192" y="564" as="targetPoint" />
            <Array as="points">
              <mxPoint x="699" y="564" />
            </Array>
          </mxGeometry>
        </mxCell>
        <mxCell id="y6NP4ie1jsGtpThXWn4a-7" value="Router" style="rounded=1;whiteSpace=wrap;html=1;fillColor=#E8FEFF;shadow=1;" parent="1" vertex="1">
          <mxGeometry x="646" y="628" width="105.25" height="98" as="geometry" />
        </mxCell>
        <mxCell id="y6NP4ie1jsGtpThXWn4a-10" value="&lt;span style=&quot;font-size: 9pt; color: black; vertical-align: baseline;&quot;&gt;&lt;font face=&quot;Verdana&quot;&gt;192.168.11.？&lt;/font&gt;&lt;/span&gt;／24" style="text;whiteSpace=wrap;html=1;fillColor=none;strokeColor=none;rounded=1;perimeterSpacing=0;align=center;verticalAlign=middle;" parent="1" vertex="1">
          <mxGeometry x="701" y="601" width="132" height="28" as="geometry" />
        </mxCell>
        <mxCell id="y6NP4ie1jsGtpThXWn4a-19" style="edgeStyle=orthogonalEdgeStyle;rounded=0;orthogonalLoop=1;jettySize=auto;html=1;entryX=0.5;entryY=1;entryDx=0;entryDy=0;endArrow=none;endFill=0;" parent="1" source="y6NP4ie1jsGtpThXWn4a-11" target="KMp59yZOzUuIcrv0XD4f-5" edge="1">
          <mxGeometry relative="1" as="geometry" />
        </mxCell>
        <mxCell id="y6NP4ie1jsGtpThXWn4a-28" style="edgeStyle=orthogonalEdgeStyle;rounded=0;orthogonalLoop=1;jettySize=auto;html=1;entryX=0.5;entryY=0;entryDx=0;entryDy=0;entryPerimeter=0;endArrow=none;endFill=0;" parent="1" source="y6NP4ie1jsGtpThXWn4a-11" target="y6NP4ie1jsGtpThXWn4a-27" edge="1">
          <mxGeometry relative="1" as="geometry" />
        </mxCell>
        <mxCell id="y6NP4ie1jsGtpThXWn4a-11" value="switch" style="rounded=1;whiteSpace=wrap;html=1;fillColor=#CFFFCC;shadow=1;" parent="1" vertex="1">
          <mxGeometry x="162.6199999999999" y="809" width="60" height="57" as="geometry" />
        </mxCell>
        <mxCell id="y6NP4ie1jsGtpThXWn4a-20" value="&lt;span style=&quot;font-size: 9pt; color: black; vertical-align: baseline;&quot;&gt;&lt;font face=&quot;Verdana&quot;&gt;192.168.129.1&lt;/font&gt;&lt;/span&gt;／24" style="text;whiteSpace=wrap;html=1;fillColor=none;strokeColor=none;rounded=1;perimeterSpacing=0;align=center;verticalAlign=middle;" parent="1" vertex="1">
          <mxGeometry x="187" y="736" width="135" height="28" as="geometry" />
        </mxCell>
        <mxCell id="y6NP4ie1jsGtpThXWn4a-21" value="本社社員&lt;br&gt;作業用PC" style="rounded=1;whiteSpace=wrap;html=1;strokeColor=#ababab;fillColor=#F5F5F5;arcSize=0;dashed=1;" parent="1" vertex="1">
          <mxGeometry x="134.51999999999998" y="1006" width="120" height="70" as="geometry" />
        </mxCell>
        <mxCell id="y6NP4ie1jsGtpThXWn4a-22" value="" style="shape=mxgraph.signs.travel.stairs;html=1;pointerEvents=1;fillColor=#000000;strokeColor=none;verticalLabelPosition=bottom;verticalAlign=top;align=center;shadow=1;" parent="1" vertex="1">
          <mxGeometry x="657.94" y="916" width="81.37" height="61.5" as="geometry" />
        </mxCell>
        <mxCell id="y6NP4ie1jsGtpThXWn4a-24" value="８F" style="rounded=1;whiteSpace=wrap;html=1;strokeColor=#ababab;fillColor=#F5F5F5;arcSize=0;dashed=1;" parent="1" vertex="1">
          <mxGeometry x="646" y="1006" width="120" height="70" as="geometry" />
        </mxCell>
        <mxCell id="y6NP4ie1jsGtpThXWn4a-30" style="edgeStyle=orthogonalEdgeStyle;rounded=0;orthogonalLoop=1;jettySize=auto;html=1;endArrow=none;endFill=0;" parent="1" source="y6NP4ie1jsGtpThXWn4a-25" target="y6NP4ie1jsGtpThXWn4a-29" edge="1">
          <mxGeometry relative="1" as="geometry" />
        </mxCell>
        <mxCell id="y6NP4ie1jsGtpThXWn4a-25" value="switch" style="rounded=1;whiteSpace=wrap;html=1;fillColor=#CFFFCC;shadow=1;" parent="1" vertex="1">
          <mxGeometry x="412.0000000000002" y="809" width="60" height="57" as="geometry" />
        </mxCell>
        <mxCell id="y6NP4ie1jsGtpThXWn4a-27" value="" style="shape=mxgraph.cisco.computers_and_peripherals.terminal;html=1;pointerEvents=1;dashed=0;fillColor=#036897;strokeColor=#ffffff;strokeWidth=2;verticalLabelPosition=bottom;verticalAlign=top;align=center;outlineConnect=0;shadow=1;" parent="1" vertex="1">
          <mxGeometry x="152.92999999999984" y="926" width="79.38" height="65.5" as="geometry" />
        </mxCell>
        <mxCell id="y6NP4ie1jsGtpThXWn4a-29" value="" style="shape=mxgraph.cisco.computers_and_peripherals.laptop;html=1;pointerEvents=1;dashed=0;fillColor=#036897;strokeColor=#ffffff;strokeWidth=2;verticalLabelPosition=bottom;verticalAlign=top;align=center;outlineConnect=0;shadow=1;" parent="1" vertex="1">
          <mxGeometry x="397.0100000000002" y="926" width="90" height="61" as="geometry" />
        </mxCell>
        <mxCell id="y6NP4ie1jsGtpThXWn4a-31" value="PC初期設定用" style="rounded=1;whiteSpace=wrap;html=1;strokeColor=#ababab;fillColor=#F5F5F5;arcSize=0;dashed=1;" parent="1" vertex="1">
          <mxGeometry x="382" y="1006" width="120" height="70" as="geometry" />
        </mxCell>
        <mxCell id="5nTyF22N7G9lY-YG46lD-1" value="&lt;span style=&quot;font-size: 9pt; color: black; vertical-align: baseline;&quot;&gt;&lt;font face=&quot;Verdana&quot;&gt;192.168.?.？&lt;/font&gt;&lt;/span&gt;／24" style="text;whiteSpace=wrap;html=1;fillColor=none;strokeColor=none;rounded=1;perimeterSpacing=0;align=center;verticalAlign=middle;" parent="1" vertex="1">
          <mxGeometry x="701" y="736" width="122" height="28" as="geometry" />
        </mxCell>
        <mxCell id="5nTyF22N7G9lY-YG46lD-2" value="&lt;span style=&quot;font-size: 9pt; color: black; vertical-align: baseline;&quot;&gt;&lt;font face=&quot;Verdana&quot;&gt;192.168.132.1&lt;/font&gt;&lt;/span&gt;／24" style="text;whiteSpace=wrap;html=1;fillColor=none;strokeColor=none;rounded=1;perimeterSpacing=0;align=center;verticalAlign=middle;" parent="1" vertex="1">
          <mxGeometry x="438.3800000000001" y="736" width="133" height="28" as="geometry" />
        </mxCell>
        <mxCell id="w5agX83P2Z7wOMzvSA8g-4" style="edgeStyle=orthogonalEdgeStyle;rounded=0;orthogonalLoop=1;jettySize=auto;html=1;endArrow=none;endFill=0;exitX=0.5;exitY=0;exitDx=0;exitDy=0;exitPerimeter=0;" parent="1" source="w5agX83P2Z7wOMzvSA8g-1" edge="1">
          <mxGeometry relative="1" as="geometry">
            <mxPoint x="192" y="564" as="targetPoint" />
            <mxPoint x="852" y="641" as="sourcePoint" />
            <Array as="points">
              <mxPoint x="983" y="637" />
              <mxPoint x="983" y="564" />
            </Array>
          </mxGeometry>
        </mxCell>
        <mxCell id="w5agX83P2Z7wOMzvSA8g-1" value="" style="shape=mxgraph.cisco.computers_and_peripherals.printer;html=1;pointerEvents=1;dashed=0;fillColor=#ede3e3;strokeColor=#666666;strokeWidth=2;verticalLabelPosition=bottom;verticalAlign=top;align=center;outlineConnect=0;fontColor=#333333;shadow=1;" parent="1" vertex="1">
          <mxGeometry x="916" y="637" width="140" height="80" as="geometry" />
        </mxCell>
        <mxCell id="nmfrbgwkhF0ShByylipw-1" value="&lt;span style=&quot;font-size: 9pt; color: black; vertical-align: baseline;&quot;&gt;&lt;font face=&quot;Verdana&quot;&gt;192.168.11.200&lt;/font&gt;&lt;/span&gt;／24" style="text;whiteSpace=wrap;html=1;fillColor=none;strokeColor=none;rounded=1;perimeterSpacing=0;align=center;verticalAlign=middle;" parent="1" vertex="1">
          <mxGeometry x="990" y="601" width="140" height="28" as="geometry" />
        </mxCell>
        <mxCell id="nmfrbgwkhF0ShByylipw-2" value="プリンタ" style="rounded=1;whiteSpace=wrap;html=1;strokeColor=#ababab;fillColor=#F5F5F5;arcSize=0;dashed=1;" parent="1" vertex="1">
          <mxGeometry x="916" y="1006" width="120" height="70" as="geometry" />
        </mxCell>
        <mxCell id="VyY0NN6uvqYZ61jCAzN4-1" value="&lt;span style=&quot;font-size: 9pt; color: black; vertical-align: baseline;&quot;&gt;&lt;font face=&quot;Verdana&quot;&gt;192.168.129.＊&lt;/font&gt;&lt;/span&gt;／24" style="text;whiteSpace=wrap;html=1;fillColor=none;strokeColor=none;rounded=1;perimeterSpacing=0;align=center;verticalAlign=middle;" parent="1" vertex="1">
          <mxGeometry x="191" y="898" width="135" height="28" as="geometry" />
        </mxCell>
        <mxCell id="VyY0NN6uvqYZ61jCAzN4-2" value="&lt;span style=&quot;font-size: 9pt; color: black; vertical-align: baseline;&quot;&gt;&lt;font face=&quot;Verdana&quot;&gt;192.168.132.＊&lt;/font&gt;&lt;/span&gt;／24" style="text;whiteSpace=wrap;html=1;fillColor=none;strokeColor=none;rounded=1;perimeterSpacing=0;align=center;verticalAlign=middle;" parent="1" vertex="1">
          <mxGeometry x="441" y="898" width="135" height="28" as="geometry" />
        </mxCell>
        <mxCell id="b-s1DkXiBMH1xUvTZdXM-1" value="&lt;span style=&quot;font-size: 18px;&quot;&gt;&lt;b&gt;ネットワーク構成図&lt;/b&gt;&lt;/span&gt;" style="rounded=0;whiteSpace=wrap;html=1;dashed=1;dashPattern=1 2;" parent="1" vertex="1">
          <mxGeometry x="99" y="40" width="288.54" height="60" as="geometry" />
        </mxCell>
      </root>
    </mxGraphModel>
  </diagram>
  <diagram name="タイトル-フロア図" id="x0Uso7uhXcopTjdaoPtt">
    <mxGraphModel dx="949" dy="725" grid="0" gridSize="10" guides="1" tooltips="1" connect="1" arrows="1" fold="1" page="1" pageScale="1" pageWidth="1654" pageHeight="1169" math="0" shadow="0">
      <root>
        <mxCell id="HfN_5zfNNEMuwLK8IRe9-0" />
        <mxCell id="HfN_5zfNNEMuwLK8IRe9-1" parent="HfN_5zfNNEMuwLK8IRe9-0" />
        <mxCell id="HfN_5zfNNEMuwLK8IRe9-2" value="&lt;span style=&quot;font-size: 48px;&quot;&gt;&lt;b&gt;&lt;font color=&quot;#7ea6e0&quot;&gt;～フロアレイアウト～&lt;/font&gt;&lt;br&gt;&lt;/b&gt;&lt;/span&gt;" style="rounded=0;whiteSpace=wrap;html=1;dashed=1;dashPattern=1 2;strokeColor=none;" parent="HfN_5zfNNEMuwLK8IRe9-1" vertex="1">
          <mxGeometry x="488" y="555" width="678.54" height="60" as="geometry" />
        </mxCell>
      </root>
    </mxGraphModel>
  </diagram>
  <diagram id="MDGOJCW7vGF6zFPGwbU7" name="総務部フロア">
    <mxGraphModel dx="949" dy="725" grid="0" gridSize="10" guides="1" tooltips="1" connect="1" arrows="1" fold="1" page="1" pageScale="1" pageWidth="1169" pageHeight="1654" math="0" shadow="0">
      <root>
        <mxCell id="0" />
        <mxCell id="1" parent="0" />
        <mxCell id="63bXRpxz-lyiyaiiUivK-5" value="" style="rounded=0;whiteSpace=wrap;html=1;strokeColor=#ADADAD;fillColor=#E6E6E6;" parent="1" vertex="1">
          <mxGeometry x="100" y="463" width="80" height="160" as="geometry" />
        </mxCell>
        <mxCell id="63bXRpxz-lyiyaiiUivK-6" value="" style="rounded=0;whiteSpace=wrap;html=1;strokeColor=#ADADAD;fillColor=#E6E6E6;" parent="1" vertex="1">
          <mxGeometry x="180" y="463" width="360" height="80" as="geometry" />
        </mxCell>
        <mxCell id="63bXRpxz-lyiyaiiUivK-7" value="" style="rounded=0;whiteSpace=wrap;html=1;strokeColor=#ADADAD;fillColor=#E6E6E6;" parent="1" vertex="1">
          <mxGeometry x="180" y="543" width="360" height="80" as="geometry" />
        </mxCell>
        <mxCell id="63bXRpxz-lyiyaiiUivK-8" value="" style="image;aspect=fixed;perimeter=ellipsePerimeter;html=1;align=center;shadow=0;dashed=0;spacingTop=3;image=img/lib/active_directory/internet_cloud.svg;" parent="1" vertex="1">
          <mxGeometry x="57.5" y="166.22" width="85" height="53.55" as="geometry" />
        </mxCell>
        <mxCell id="-RbvLul1ZPuucHyy3-5i-4" style="edgeStyle=orthogonalEdgeStyle;rounded=0;orthogonalLoop=1;jettySize=auto;html=1;strokeColor=#000000;" parent="1" source="63bXRpxz-lyiyaiiUivK-10" target="63bXRpxz-lyiyaiiUivK-8" edge="1">
          <mxGeometry relative="1" as="geometry">
            <mxPoint x="100" y="223" as="targetPoint" />
          </mxGeometry>
        </mxCell>
        <mxCell id="QTngc9GNEie6ZX5iEHso-8" style="edgeStyle=orthogonalEdgeStyle;rounded=0;orthogonalLoop=1;jettySize=auto;html=1;entryX=0;entryY=0.5;entryDx=0;entryDy=0;strokeColor=#FF9A03;" parent="1" source="63bXRpxz-lyiyaiiUivK-10" target="QTngc9GNEie6ZX5iEHso-1" edge="1">
          <mxGeometry relative="1" as="geometry" />
        </mxCell>
        <mxCell id="63bXRpxz-lyiyaiiUivK-10" value="Router&lt;br&gt;（YAMAHA NVR500）" style="rounded=1;whiteSpace=wrap;html=1;fillColor=#E8FEFF;shadow=1;" parent="1" vertex="1">
          <mxGeometry x="30" y="303" width="140" height="80" as="geometry" />
        </mxCell>
        <mxCell id="rR0wDZzCqp8L-fWYsj2M-8" style="edgeStyle=orthogonalEdgeStyle;rounded=0;orthogonalLoop=1;jettySize=auto;html=1;strokeColor=#1900FF;" parent="1" source="rR0wDZzCqp8L-fWYsj2M-1" target="rR0wDZzCqp8L-fWYsj2M-2" edge="1">
          <mxGeometry relative="1" as="geometry" />
        </mxCell>
        <mxCell id="rR0wDZzCqp8L-fWYsj2M-1" value="switch" style="rounded=1;whiteSpace=wrap;html=1;fillColor=#CFFFCC;shadow=1;" parent="1" vertex="1">
          <mxGeometry x="250" y="523" width="60" height="40" as="geometry" />
        </mxCell>
        <mxCell id="rR0wDZzCqp8L-fWYsj2M-2" value="switch" style="rounded=1;whiteSpace=wrap;html=1;fillColor=#CFFFCC;shadow=1;" parent="1" vertex="1">
          <mxGeometry x="400" y="523" width="60" height="40" as="geometry" />
        </mxCell>
        <mxCell id="rR0wDZzCqp8L-fWYsj2M-3" value="" style="rounded=0;whiteSpace=wrap;html=1;strokeColor=#ADADAD;fillColor=#E6E6E6;" parent="1" vertex="1">
          <mxGeometry x="100" y="664" width="440" height="80" as="geometry" />
        </mxCell>
        <mxCell id="rR0wDZzCqp8L-fWYsj2M-4" value="" style="rounded=0;whiteSpace=wrap;html=1;strokeColor=#ADADAD;fillColor=#E6E6E6;" parent="1" vertex="1">
          <mxGeometry x="100" y="744" width="440" height="80" as="geometry" />
        </mxCell>
        <mxCell id="rR0wDZzCqp8L-fWYsj2M-11" style="edgeStyle=orthogonalEdgeStyle;rounded=0;orthogonalLoop=1;jettySize=auto;html=1;strokeColor=#1900FF;entryX=0.516;entryY=0;entryDx=0;entryDy=0;entryPerimeter=0;" parent="1" source="rR0wDZzCqp8L-fWYsj2M-5" target="ys36IB9WZGPMwQjJ6rET-4" edge="1">
          <mxGeometry relative="1" as="geometry">
            <mxPoint x="430.0050000000001" y="873" as="targetPoint" />
          </mxGeometry>
        </mxCell>
        <mxCell id="-uz3u8skvAK5P0J0BZlt-1" style="edgeStyle=orthogonalEdgeStyle;rounded=0;orthogonalLoop=1;jettySize=auto;html=1;strokeColor=#3333FF;" parent="1" source="rR0wDZzCqp8L-fWYsj2M-5" target="HCUPXO4kEf2pHXfVtR1O-1" edge="1">
          <mxGeometry relative="1" as="geometry">
            <Array as="points">
              <mxPoint x="420" y="691" />
            </Array>
          </mxGeometry>
        </mxCell>
        <mxCell id="rR0wDZzCqp8L-fWYsj2M-5" value="switch" style="rounded=1;whiteSpace=wrap;html=1;fillColor=#CFFFCC;shadow=1;" parent="1" vertex="1">
          <mxGeometry x="400" y="724" width="60" height="40" as="geometry" />
        </mxCell>
        <mxCell id="rR0wDZzCqp8L-fWYsj2M-9" style="edgeStyle=orthogonalEdgeStyle;rounded=0;orthogonalLoop=1;jettySize=auto;html=1;entryX=0.5;entryY=0;entryDx=0;entryDy=0;strokeColor=#3300FF;" parent="1" source="rR0wDZzCqp8L-fWYsj2M-2" target="rR0wDZzCqp8L-fWYsj2M-5" edge="1">
          <mxGeometry relative="1" as="geometry" />
        </mxCell>
        <mxCell id="rR0wDZzCqp8L-fWYsj2M-27" value="" style="group" parent="1" vertex="1" connectable="0">
          <mxGeometry x="690" y="873" width="120" height="50" as="geometry" />
        </mxCell>
        <mxCell id="rR0wDZzCqp8L-fWYsj2M-28" value="" style="verticalLabelPosition=bottom;verticalAlign=top;html=1;shape=process;whiteSpace=wrap;rounded=1;size=0.05555555555555555;arcSize=6;" parent="rR0wDZzCqp8L-fWYsj2M-27" vertex="1">
          <mxGeometry width="120" height="50" as="geometry" />
        </mxCell>
        <mxCell id="rR0wDZzCqp8L-fWYsj2M-29" value="&lt;font style=&quot;&quot;&gt;&lt;font style=&quot;font-size: 12px;&quot;&gt;システム部&lt;br&gt;フロア&lt;br&gt;&lt;/font&gt;③&lt;br&gt;&lt;/font&gt;" style="text;strokeColor=none;align=center;fillColor=none;html=1;verticalAlign=middle;whiteSpace=wrap;rounded=0;" parent="rR0wDZzCqp8L-fWYsj2M-27" vertex="1">
          <mxGeometry x="6.761904761904762" y="12.5" width="106.66666666666666" height="25" as="geometry" />
        </mxCell>
        <mxCell id="rR0wDZzCqp8L-fWYsj2M-39" value="" style="group" parent="1" vertex="1" connectable="0">
          <mxGeometry x="620" y="163" width="180" height="60" as="geometry" />
        </mxCell>
        <mxCell id="rR0wDZzCqp8L-fWYsj2M-40" value="" style="verticalLabelPosition=bottom;verticalAlign=top;html=1;shape=process;whiteSpace=wrap;rounded=1;size=0.05555555555555555;arcSize=6;" parent="rR0wDZzCqp8L-fWYsj2M-39" vertex="1">
          <mxGeometry width="180" height="60" as="geometry" />
        </mxCell>
        <mxCell id="rR0wDZzCqp8L-fWYsj2M-41" value="&lt;font style=&quot;&quot;&gt;&lt;font style=&quot;font-size: 12px;&quot;&gt;会議室フロア&lt;/font&gt;&lt;br&gt;&lt;/font&gt;" style="text;strokeColor=none;align=center;fillColor=none;html=1;verticalAlign=middle;whiteSpace=wrap;rounded=0;" parent="rR0wDZzCqp8L-fWYsj2M-39" vertex="1">
          <mxGeometry x="14" y="15" width="160" height="30" as="geometry" />
        </mxCell>
        <mxCell id="QYMNp3ojt-bFXnHzwiDI-1" value="出&lt;br&gt;入&lt;br&gt;口" style="rounded=0;whiteSpace=wrap;html=1;strokeColor=#ADADAD;fillColor=#E6E6E6;" parent="1" vertex="1">
          <mxGeometry x="800" y="273" width="27" height="160" as="geometry" />
        </mxCell>
        <mxCell id="-RbvLul1ZPuucHyy3-5i-6" style="edgeStyle=orthogonalEdgeStyle;rounded=0;orthogonalLoop=1;jettySize=auto;html=1;entryX=0.5;entryY=1;entryDx=0;entryDy=0;strokeColor=#3300FF;" parent="1" source="-RbvLul1ZPuucHyy3-5i-5" target="rR0wDZzCqp8L-fWYsj2M-40" edge="1">
          <mxGeometry relative="1" as="geometry" />
        </mxCell>
        <mxCell id="E1HZXSwlvElaAuEQ6Fes-1" style="edgeStyle=orthogonalEdgeStyle;rounded=0;orthogonalLoop=1;jettySize=auto;html=1;strokeColor=#1100FF;" parent="1" source="-RbvLul1ZPuucHyy3-5i-5" target="rR0wDZzCqp8L-fWYsj2M-1" edge="1">
          <mxGeometry relative="1" as="geometry">
            <Array as="points">
              <mxPoint x="280" y="373" />
            </Array>
          </mxGeometry>
        </mxCell>
        <mxCell id="-RbvLul1ZPuucHyy3-5i-5" value="Router&lt;br&gt;（DEGWIN_NET）" style="rounded=1;whiteSpace=wrap;html=1;fillColor=#E8FEFF;shadow=1;" parent="1" vertex="1">
          <mxGeometry x="640" y="303" width="140" height="80" as="geometry" />
        </mxCell>
        <mxCell id="QTngc9GNEie6ZX5iEHso-11" style="edgeStyle=orthogonalEdgeStyle;rounded=0;orthogonalLoop=1;jettySize=auto;html=1;entryX=0;entryY=0.5;entryDx=0;entryDy=0;strokeColor=#FF9A03;" parent="1" source="QTngc9GNEie6ZX5iEHso-1" target="-RbvLul1ZPuucHyy3-5i-5" edge="1">
          <mxGeometry relative="1" as="geometry" />
        </mxCell>
        <mxCell id="QTngc9GNEie6ZX5iEHso-12" style="edgeStyle=orthogonalEdgeStyle;rounded=0;orthogonalLoop=1;jettySize=auto;html=1;entryX=0.5;entryY=1;entryDx=0;entryDy=0;strokeColor=#FF9A03;" parent="1" source="QTngc9GNEie6ZX5iEHso-1" target="QTngc9GNEie6ZX5iEHso-2" edge="1">
          <mxGeometry relative="1" as="geometry">
            <mxPoint x="250" y="303" as="targetPoint" />
          </mxGeometry>
        </mxCell>
        <mxCell id="R4y9HLZ7HDEcw0H2GyjW-2" style="edgeStyle=orthogonalEdgeStyle;rounded=0;orthogonalLoop=1;jettySize=auto;html=1;entryX=0.5;entryY=0;entryDx=0;entryDy=0;strokeColor=#FFA200;" parent="1" source="QTngc9GNEie6ZX5iEHso-1" target="rR0wDZzCqp8L-fWYsj2M-28" edge="1">
          <mxGeometry relative="1" as="geometry">
            <mxPoint x="310" y="433" as="targetPoint" />
            <Array as="points">
              <mxPoint x="260" y="413" />
              <mxPoint x="750" y="413" />
            </Array>
          </mxGeometry>
        </mxCell>
        <mxCell id="B065bz6VCPGWrVxAufd--6" style="edgeStyle=orthogonalEdgeStyle;rounded=0;orthogonalLoop=1;jettySize=auto;html=1;entryX=0.5;entryY=0;entryDx=0;entryDy=0;strokeColor=#FFA200;" parent="1" source="QTngc9GNEie6ZX5iEHso-1" target="o6l4HtPlhpgrUanqMExv-2" edge="1">
          <mxGeometry relative="1" as="geometry">
            <mxPoint x="640" y="483" as="targetPoint" />
            <Array as="points">
              <mxPoint x="240" y="433" />
              <mxPoint x="601" y="433" />
              <mxPoint x="601" y="483" />
            </Array>
          </mxGeometry>
        </mxCell>
        <mxCell id="QTngc9GNEie6ZX5iEHso-1" value="switch" style="rounded=1;whiteSpace=wrap;html=1;fillColor=#CFFFCC;shadow=1;" parent="1" vertex="1">
          <mxGeometry x="220" y="323" width="60" height="40" as="geometry" />
        </mxCell>
        <mxCell id="QTngc9GNEie6ZX5iEHso-3" style="edgeStyle=orthogonalEdgeStyle;rounded=0;orthogonalLoop=1;jettySize=auto;html=1;entryX=0.5;entryY=1;entryDx=0;entryDy=0;strokeColor=#00CC00;" parent="1" source="QTngc9GNEie6ZX5iEHso-2" target="QTngc9GNEie6ZX5iEHso-5" edge="1">
          <mxGeometry relative="1" as="geometry">
            <mxPoint x="390" y="233" as="targetPoint" />
          </mxGeometry>
        </mxCell>
        <mxCell id="QTngc9GNEie6ZX5iEHso-2" value="Router" style="rounded=1;whiteSpace=wrap;html=1;fillColor=#E8FEFF;shadow=1;" parent="1" vertex="1">
          <mxGeometry x="210" y="213" width="80" height="80" as="geometry" />
        </mxCell>
        <mxCell id="QTngc9GNEie6ZX5iEHso-4" value="" style="group" parent="1" vertex="1" connectable="0">
          <mxGeometry x="350" y="163" width="180" height="60" as="geometry" />
        </mxCell>
        <mxCell id="QTngc9GNEie6ZX5iEHso-5" value="" style="verticalLabelPosition=bottom;verticalAlign=top;html=1;shape=process;whiteSpace=wrap;rounded=1;size=0.05555555555555555;arcSize=6;" parent="QTngc9GNEie6ZX5iEHso-4" vertex="1">
          <mxGeometry width="180" height="60" as="geometry" />
        </mxCell>
        <mxCell id="QTngc9GNEie6ZX5iEHso-6" value="&lt;font style=&quot;&quot;&gt;8F&lt;br&gt;&lt;/font&gt;" style="text;strokeColor=none;align=center;fillColor=none;html=1;verticalAlign=middle;whiteSpace=wrap;rounded=0;" parent="QTngc9GNEie6ZX5iEHso-4" vertex="1">
          <mxGeometry x="14" y="15" width="160" height="30" as="geometry" />
        </mxCell>
        <mxCell id="QTngc9GNEie6ZX5iEHso-13" value="Router&lt;br&gt;（電話用）" style="rounded=1;whiteSpace=wrap;html=1;fillColor=#E8FEFF;shadow=1;" parent="1" vertex="1">
          <mxGeometry x="110" y="658" width="70" height="65" as="geometry" />
        </mxCell>
        <mxCell id="AYBhJsh7rWSHI7cgnQnI-5" value="ジオング" style="text;html=1;strokeColor=#82b366;fillColor=#F9FFA8;align=center;verticalAlign=middle;whiteSpace=wrap;overflow=hidden;" parent="1" vertex="1">
          <mxGeometry x="750" y="473" width="60" height="20" as="geometry" />
        </mxCell>
        <mxCell id="wRabwNrMdcwJLERuGVmP-2" value="ジオン&lt;br style=&quot;border-color: var(--border-color);&quot;&gt;タイクン" style="text;html=1;strokeColor=#82b366;fillColor=#F9FFA8;align=center;verticalAlign=middle;whiteSpace=wrap;overflow=hidden;" parent="1" vertex="1">
          <mxGeometry x="440" y="313" width="60" height="30" as="geometry" />
        </mxCell>
        <mxCell id="wRabwNrMdcwJLERuGVmP-3" value="シャア？" style="text;html=1;strokeColor=#82b366;fillColor=#F9FFA8;align=center;verticalAlign=middle;whiteSpace=wrap;overflow=hidden;" parent="1" vertex="1">
          <mxGeometry x="440" y="373" width="60" height="30" as="geometry" />
        </mxCell>
        <mxCell id="wRabwNrMdcwJLERuGVmP-4" value="ギレン" style="text;html=1;strokeColor=#82b366;fillColor=#F9FFA8;align=center;verticalAlign=middle;whiteSpace=wrap;overflow=hidden;" parent="1" vertex="1">
          <mxGeometry x="680" y="263" width="60" height="20" as="geometry" />
        </mxCell>
        <mxCell id="o6l4HtPlhpgrUanqMExv-1" value="" style="group" parent="1" vertex="1" connectable="0">
          <mxGeometry x="550" y="873" width="125" height="50" as="geometry" />
        </mxCell>
        <mxCell id="o6l4HtPlhpgrUanqMExv-2" value="" style="verticalLabelPosition=bottom;verticalAlign=top;html=1;shape=process;whiteSpace=wrap;rounded=1;size=0.05555555555555555;arcSize=6;" parent="o6l4HtPlhpgrUanqMExv-1" vertex="1">
          <mxGeometry x="-12" width="125" height="50" as="geometry" />
        </mxCell>
        <mxCell id="o6l4HtPlhpgrUanqMExv-3" value="&lt;font style=&quot;&quot;&gt;&lt;font style=&quot;font-size: 12px;&quot;&gt;システム部&lt;br&gt;フロア&lt;br&gt;②&lt;/font&gt;&lt;br&gt;&lt;/font&gt;" style="text;strokeColor=none;align=center;fillColor=none;html=1;verticalAlign=middle;whiteSpace=wrap;rounded=0;" parent="o6l4HtPlhpgrUanqMExv-1" vertex="1">
          <mxGeometry x="-4.956349206349206" y="12.5" width="111.11111111111111" height="25" as="geometry" />
        </mxCell>
        <mxCell id="ys36IB9WZGPMwQjJ6rET-3" value="" style="group" parent="1" vertex="1" connectable="0">
          <mxGeometry x="377.5" y="873" width="125" height="50" as="geometry" />
        </mxCell>
        <mxCell id="ys36IB9WZGPMwQjJ6rET-4" value="" style="verticalLabelPosition=bottom;verticalAlign=top;html=1;shape=process;whiteSpace=wrap;rounded=1;size=0.05555555555555555;arcSize=6;" parent="ys36IB9WZGPMwQjJ6rET-3" vertex="1">
          <mxGeometry x="-12" width="125" height="50" as="geometry" />
        </mxCell>
        <mxCell id="ys36IB9WZGPMwQjJ6rET-5" value="&lt;font style=&quot;&quot;&gt;&lt;font style=&quot;font-size: 12px;&quot;&gt;システム部&lt;br&gt;フロア&lt;br&gt;&lt;/font&gt;①&lt;br&gt;&lt;/font&gt;" style="text;strokeColor=none;align=center;fillColor=none;html=1;verticalAlign=middle;whiteSpace=wrap;rounded=0;" parent="ys36IB9WZGPMwQjJ6rET-3" vertex="1">
          <mxGeometry x="-4.956349206349206" y="12.5" width="111.11111111111111" height="25" as="geometry" />
        </mxCell>
        <mxCell id="MCcojzmN9hQde7-cNdbK-26" value="" style="group;movable=0;resizable=0;rotatable=0;deletable=0;editable=0;locked=1;connectable=0;" parent="1" vertex="1" connectable="0">
          <mxGeometry x="40" y="960" width="510" height="150" as="geometry" />
        </mxCell>
        <mxCell id="MCcojzmN9hQde7-cNdbK-6" value="" style="shape=table;startSize=0;container=1;collapsible=0;childLayout=tableLayout;fontSize=16;fontColor=#ffffff;" parent="MCcojzmN9hQde7-cNdbK-26" vertex="1">
          <mxGeometry width="510" height="150" as="geometry" />
        </mxCell>
        <mxCell id="MCcojzmN9hQde7-cNdbK-7" value="" style="shape=tableRow;horizontal=0;startSize=0;swimlaneHead=0;swimlaneBody=0;strokeColor=inherit;top=0;left=0;bottom=0;right=0;collapsible=0;dropTarget=0;fillColor=none;points=[[0,0.5],[1,0.5]];portConstraint=eastwest;fontSize=16;" parent="MCcojzmN9hQde7-cNdbK-6" vertex="1">
          <mxGeometry width="510" height="30" as="geometry" />
        </mxCell>
        <mxCell id="MCcojzmN9hQde7-cNdbK-8" value="&lt;font color=&quot;#ffffff&quot; style=&quot;font-size: 12px;&quot;&gt;矢印&lt;/font&gt;" style="shape=partialRectangle;html=1;whiteSpace=wrap;connectable=0;strokeColor=inherit;overflow=hidden;fillColor=#000099;top=0;left=0;bottom=0;right=0;pointerEvents=1;fontSize=16;" parent="MCcojzmN9hQde7-cNdbK-7" vertex="1">
          <mxGeometry width="140" height="30" as="geometry">
            <mxRectangle width="140" height="30" as="alternateBounds" />
          </mxGeometry>
        </mxCell>
        <mxCell id="MCcojzmN9hQde7-cNdbK-9" value="&lt;font color=&quot;#ffffff&quot; style=&quot;font-size: 12px;&quot;&gt;ネットワーク&lt;/font&gt;" style="shape=partialRectangle;html=1;whiteSpace=wrap;connectable=0;strokeColor=inherit;overflow=hidden;fillColor=#000099;top=0;left=0;bottom=0;right=0;pointerEvents=1;fontSize=16;" parent="MCcojzmN9hQde7-cNdbK-7" vertex="1">
          <mxGeometry x="140" width="135" height="30" as="geometry">
            <mxRectangle width="135" height="30" as="alternateBounds" />
          </mxGeometry>
        </mxCell>
        <mxCell id="MCcojzmN9hQde7-cNdbK-10" value="&lt;font color=&quot;#ffffff&quot; style=&quot;font-size: 12px;&quot;&gt;用途&lt;/font&gt;" style="shape=partialRectangle;html=1;whiteSpace=wrap;connectable=0;strokeColor=inherit;overflow=hidden;fillColor=#000099;top=0;left=0;bottom=0;right=0;pointerEvents=1;fontSize=16;" parent="MCcojzmN9hQde7-cNdbK-7" vertex="1">
          <mxGeometry x="275" width="235" height="30" as="geometry">
            <mxRectangle width="235" height="30" as="alternateBounds" />
          </mxGeometry>
        </mxCell>
        <mxCell id="MCcojzmN9hQde7-cNdbK-11" value="" style="shape=tableRow;horizontal=0;startSize=0;swimlaneHead=0;swimlaneBody=0;strokeColor=inherit;top=0;left=0;bottom=0;right=0;collapsible=0;dropTarget=0;fillColor=none;points=[[0,0.5],[1,0.5]];portConstraint=eastwest;fontSize=16;" parent="MCcojzmN9hQde7-cNdbK-6" vertex="1">
          <mxGeometry y="30" width="510" height="40" as="geometry" />
        </mxCell>
        <mxCell id="MCcojzmN9hQde7-cNdbK-12" value="" style="shape=partialRectangle;html=1;whiteSpace=wrap;connectable=0;strokeColor=inherit;overflow=hidden;fillColor=none;top=0;left=0;bottom=0;right=0;pointerEvents=1;fontSize=16;" parent="MCcojzmN9hQde7-cNdbK-11" vertex="1">
          <mxGeometry width="140" height="40" as="geometry">
            <mxRectangle width="140" height="40" as="alternateBounds" />
          </mxGeometry>
        </mxCell>
        <mxCell id="MCcojzmN9hQde7-cNdbK-13" value="&lt;font style=&quot;font-size: 12px;&quot;&gt;192.168.11.0/24&lt;/font&gt;" style="shape=partialRectangle;html=1;whiteSpace=wrap;connectable=0;strokeColor=inherit;overflow=hidden;fillColor=none;top=0;left=0;bottom=0;right=0;pointerEvents=1;fontSize=16;" parent="MCcojzmN9hQde7-cNdbK-11" vertex="1">
          <mxGeometry x="140" width="135" height="40" as="geometry">
            <mxRectangle width="135" height="40" as="alternateBounds" />
          </mxGeometry>
        </mxCell>
        <mxCell id="MCcojzmN9hQde7-cNdbK-14" value="&lt;span style=&quot;font-size: 12px;&quot;&gt;大元の社内LAN&lt;/span&gt;" style="shape=partialRectangle;html=1;whiteSpace=wrap;connectable=0;strokeColor=inherit;overflow=hidden;fillColor=none;top=0;left=0;bottom=0;right=0;pointerEvents=1;fontSize=16;" parent="MCcojzmN9hQde7-cNdbK-11" vertex="1">
          <mxGeometry x="275" width="235" height="40" as="geometry">
            <mxRectangle width="235" height="40" as="alternateBounds" />
          </mxGeometry>
        </mxCell>
        <mxCell id="MCcojzmN9hQde7-cNdbK-15" value="" style="shape=tableRow;horizontal=0;startSize=0;swimlaneHead=0;swimlaneBody=0;strokeColor=inherit;top=0;left=0;bottom=0;right=0;collapsible=0;dropTarget=0;fillColor=none;points=[[0,0.5],[1,0.5]];portConstraint=eastwest;fontSize=16;" parent="MCcojzmN9hQde7-cNdbK-6" vertex="1">
          <mxGeometry y="70" width="510" height="40" as="geometry" />
        </mxCell>
        <mxCell id="MCcojzmN9hQde7-cNdbK-16" value="" style="shape=partialRectangle;html=1;whiteSpace=wrap;connectable=0;strokeColor=inherit;overflow=hidden;fillColor=none;top=0;left=0;bottom=0;right=0;pointerEvents=1;fontSize=16;" parent="MCcojzmN9hQde7-cNdbK-15" vertex="1">
          <mxGeometry width="140" height="40" as="geometry">
            <mxRectangle width="140" height="40" as="alternateBounds" />
          </mxGeometry>
        </mxCell>
        <mxCell id="MCcojzmN9hQde7-cNdbK-17" value="&lt;font style=&quot;font-size: 12px;&quot;&gt;192.168.129.0/24&lt;/font&gt;" style="shape=partialRectangle;html=1;whiteSpace=wrap;connectable=0;strokeColor=inherit;overflow=hidden;fillColor=none;top=0;left=0;bottom=0;right=0;pointerEvents=1;fontSize=16;" parent="MCcojzmN9hQde7-cNdbK-15" vertex="1">
          <mxGeometry x="140" width="135" height="40" as="geometry">
            <mxRectangle width="135" height="40" as="alternateBounds" />
          </mxGeometry>
        </mxCell>
        <mxCell id="MCcojzmN9hQde7-cNdbK-18" value="&lt;font style=&quot;font-size: 12px;&quot;&gt;社内PC接続用&lt;/font&gt;" style="shape=partialRectangle;html=1;whiteSpace=wrap;connectable=0;strokeColor=inherit;overflow=hidden;fillColor=none;top=0;left=0;bottom=0;right=0;pointerEvents=1;fontSize=16;" parent="MCcojzmN9hQde7-cNdbK-15" vertex="1">
          <mxGeometry x="275" width="235" height="40" as="geometry">
            <mxRectangle width="235" height="40" as="alternateBounds" />
          </mxGeometry>
        </mxCell>
        <mxCell id="MCcojzmN9hQde7-cNdbK-19" style="shape=tableRow;horizontal=0;startSize=0;swimlaneHead=0;swimlaneBody=0;strokeColor=inherit;top=0;left=0;bottom=0;right=0;collapsible=0;dropTarget=0;fillColor=none;points=[[0,0.5],[1,0.5]];portConstraint=eastwest;fontSize=16;" parent="MCcojzmN9hQde7-cNdbK-6" vertex="1">
          <mxGeometry y="110" width="510" height="40" as="geometry" />
        </mxCell>
        <mxCell id="MCcojzmN9hQde7-cNdbK-20" style="shape=partialRectangle;html=1;whiteSpace=wrap;connectable=0;strokeColor=inherit;overflow=hidden;fillColor=none;top=0;left=0;bottom=0;right=0;pointerEvents=1;fontSize=16;" parent="MCcojzmN9hQde7-cNdbK-19" vertex="1">
          <mxGeometry width="140" height="40" as="geometry">
            <mxRectangle width="140" height="40" as="alternateBounds" />
          </mxGeometry>
        </mxCell>
        <mxCell id="MCcojzmN9hQde7-cNdbK-21" value="？" style="shape=partialRectangle;html=1;whiteSpace=wrap;connectable=0;strokeColor=inherit;overflow=hidden;fillColor=none;top=0;left=0;bottom=0;right=0;pointerEvents=1;fontSize=16;" parent="MCcojzmN9hQde7-cNdbK-19" vertex="1">
          <mxGeometry x="140" width="135" height="40" as="geometry">
            <mxRectangle width="135" height="40" as="alternateBounds" />
          </mxGeometry>
        </mxCell>
        <mxCell id="MCcojzmN9hQde7-cNdbK-22" value="&lt;font style=&quot;font-size: 12px;&quot;&gt;8Fネットワーク&lt;/font&gt;" style="shape=partialRectangle;html=1;whiteSpace=wrap;connectable=0;strokeColor=inherit;overflow=hidden;fillColor=none;top=0;left=0;bottom=0;right=0;pointerEvents=1;fontSize=16;" parent="MCcojzmN9hQde7-cNdbK-19" vertex="1">
          <mxGeometry x="275" width="235" height="40" as="geometry">
            <mxRectangle width="235" height="40" as="alternateBounds" />
          </mxGeometry>
        </mxCell>
        <mxCell id="MCcojzmN9hQde7-cNdbK-23" value="" style="endArrow=classic;html=1;rounded=0;strokeColor=#FF8800;" parent="MCcojzmN9hQde7-cNdbK-26" edge="1">
          <mxGeometry width="50" height="50" relative="1" as="geometry">
            <mxPoint x="50" y="50" as="sourcePoint" />
            <mxPoint x="95" y="50" as="targetPoint" />
          </mxGeometry>
        </mxCell>
        <mxCell id="MCcojzmN9hQde7-cNdbK-24" value="" style="endArrow=classic;html=1;rounded=0;strokeColor=#0000FF;" parent="MCcojzmN9hQde7-cNdbK-26" edge="1">
          <mxGeometry width="50" height="50" relative="1" as="geometry">
            <mxPoint x="50" y="90" as="sourcePoint" />
            <mxPoint x="95" y="90" as="targetPoint" />
          </mxGeometry>
        </mxCell>
        <mxCell id="MCcojzmN9hQde7-cNdbK-25" value="" style="endArrow=classic;html=1;rounded=0;strokeColor=#00CC00;" parent="MCcojzmN9hQde7-cNdbK-26" edge="1">
          <mxGeometry width="50" height="50" relative="1" as="geometry">
            <mxPoint x="50" y="130" as="sourcePoint" />
            <mxPoint x="95" y="130" as="targetPoint" />
          </mxGeometry>
        </mxCell>
        <mxCell id="HCUPXO4kEf2pHXfVtR1O-1" value="Server&lt;br&gt;（総務データ）" style="rounded=1;whiteSpace=wrap;html=1;fillColor=#FFCCFF;shadow=1;" parent="1" vertex="1">
          <mxGeometry x="220" y="658" width="90" height="65" as="geometry" />
        </mxCell>
        <mxCell id="DnXTcF0EMIt_XxEj5BHF-1" value="&lt;span style=&quot;font-size: 18px;&quot;&gt;&lt;b&gt;総務部フロア&lt;/b&gt;&lt;/span&gt;" style="rounded=0;whiteSpace=wrap;html=1;dashed=1;dashPattern=1 2;" parent="1" vertex="1">
          <mxGeometry x="57.50000000000006" y="34" width="288.54" height="60" as="geometry" />
        </mxCell>
      </root>
    </mxGraphModel>
  </diagram>
  <diagram id="eqP1UCJlL4RjsxEuRIYG" name="システム部フロア">
    <mxGraphModel dx="949" dy="725" grid="0" gridSize="10" guides="1" tooltips="1" connect="1" arrows="1" fold="1" page="1" pageScale="1" pageWidth="1169" pageHeight="1654" math="0" shadow="0">
      <root>
        <mxCell id="0" />
        <mxCell id="1" parent="0" />
        <mxCell id="aI5zODV20611LO9MML9Z-7" value="" style="group" parent="1" vertex="1" connectable="0">
          <mxGeometry x="195" y="199" width="170" height="40" as="geometry" />
        </mxCell>
        <mxCell id="aI5zODV20611LO9MML9Z-8" value="" style="verticalLabelPosition=bottom;verticalAlign=top;html=1;shape=process;whiteSpace=wrap;rounded=1;size=0.05555555555555555;arcSize=6;" parent="aI5zODV20611LO9MML9Z-7" vertex="1">
          <mxGeometry width="170" height="40" as="geometry" />
        </mxCell>
        <mxCell id="aI5zODV20611LO9MML9Z-9" value="&lt;font style=&quot;font-size: 12px;&quot;&gt;総務部フロア&lt;br&gt;①&lt;/font&gt;" style="text;strokeColor=none;align=center;fillColor=none;html=1;verticalAlign=middle;whiteSpace=wrap;rounded=0;" parent="aI5zODV20611LO9MML9Z-7" vertex="1">
          <mxGeometry x="13.222222222222221" y="10" width="151.11111111111111" height="20" as="geometry" />
        </mxCell>
        <mxCell id="Nj-NkOxiqv5z0HJfuB6u-1" value="" style="rounded=0;whiteSpace=wrap;html=1;strokeColor=#ADADAD;fillColor=#E6E6E6;" parent="1" vertex="1">
          <mxGeometry x="80" y="319" width="400" height="80" as="geometry" />
        </mxCell>
        <mxCell id="Nj-NkOxiqv5z0HJfuB6u-2" value="" style="rounded=0;whiteSpace=wrap;html=1;strokeColor=#ADADAD;fillColor=#E6E6E6;" parent="1" vertex="1">
          <mxGeometry x="80" y="439" width="400" height="80" as="geometry" />
        </mxCell>
        <mxCell id="Nj-NkOxiqv5z0HJfuB6u-3" value="" style="rounded=0;whiteSpace=wrap;html=1;strokeColor=#ADADAD;fillColor=#E6E6E6;" parent="1" vertex="1">
          <mxGeometry x="80" y="560" width="400" height="80" as="geometry" />
        </mxCell>
        <mxCell id="Nj-NkOxiqv5z0HJfuB6u-4" value="" style="rounded=0;whiteSpace=wrap;html=1;strokeColor=#ADADAD;fillColor=#E6E6E6;" parent="1" vertex="1">
          <mxGeometry x="80" y="679" width="400" height="80" as="geometry" />
        </mxCell>
        <mxCell id="Nj-NkOxiqv5z0HJfuB6u-5" value="" style="rounded=0;whiteSpace=wrap;html=1;strokeColor=#ADADAD;fillColor=#E6E6E6;" parent="1" vertex="1">
          <mxGeometry x="80" y="799" width="480" height="80" as="geometry" />
        </mxCell>
        <mxCell id="bIHqknEUlhPa7KbJLbSP-2" style="edgeStyle=orthogonalEdgeStyle;rounded=0;orthogonalLoop=1;jettySize=auto;html=1;entryX=0.5;entryY=0;entryDx=0;entryDy=0;strokeColor=#3908FF;" parent="1" source="pti7DiBqxMkY3pUR6-18-1" target="pti7DiBqxMkY3pUR6-18-2" edge="1">
          <mxGeometry relative="1" as="geometry" />
        </mxCell>
        <mxCell id="pti7DiBqxMkY3pUR6-18-1" value="switch" style="rounded=1;whiteSpace=wrap;html=1;fillColor=#CFFFCC;shadow=1;" parent="1" vertex="1">
          <mxGeometry x="250" y="369" width="60" height="40" as="geometry" />
        </mxCell>
        <mxCell id="bIHqknEUlhPa7KbJLbSP-3" style="edgeStyle=orthogonalEdgeStyle;rounded=0;orthogonalLoop=1;jettySize=auto;html=1;strokeColor=#1900FF;" parent="1" source="pti7DiBqxMkY3pUR6-18-2" target="pti7DiBqxMkY3pUR6-18-3" edge="1">
          <mxGeometry relative="1" as="geometry" />
        </mxCell>
        <mxCell id="1SRZn88oiBS8jIDgHkdG-11" style="edgeStyle=orthogonalEdgeStyle;rounded=0;orthogonalLoop=1;jettySize=auto;html=1;strokeColor=#0000FF;entryX=0.167;entryY=0.067;entryDx=0;entryDy=0;entryPerimeter=0;" parent="1" source="pti7DiBqxMkY3pUR6-18-2" target="XU0MXxJnTNw7B2g3Z5so-1" edge="1">
          <mxGeometry relative="1" as="geometry">
            <mxPoint x="520" y="669" as="targetPoint" />
          </mxGeometry>
        </mxCell>
        <mxCell id="pti7DiBqxMkY3pUR6-18-2" value="switch" style="rounded=1;whiteSpace=wrap;html=1;fillColor=#CFFFCC;shadow=1;" parent="1" vertex="1">
          <mxGeometry x="250" y="610" width="60" height="40" as="geometry" />
        </mxCell>
        <mxCell id="pti7DiBqxMkY3pUR6-18-3" value="switch" style="rounded=1;whiteSpace=wrap;html=1;fillColor=#CFFFCC;shadow=1;" parent="1" vertex="1">
          <mxGeometry x="250" y="779" width="60" height="40" as="geometry" />
        </mxCell>
        <mxCell id="bIHqknEUlhPa7KbJLbSP-1" style="edgeStyle=orthogonalEdgeStyle;rounded=0;orthogonalLoop=1;jettySize=auto;html=1;strokeColor=#1100FF;" parent="1" source="aI5zODV20611LO9MML9Z-8" target="pti7DiBqxMkY3pUR6-18-1" edge="1">
          <mxGeometry relative="1" as="geometry">
            <Array as="points">
              <mxPoint x="280" y="259" />
              <mxPoint x="280" y="259" />
            </Array>
          </mxGeometry>
        </mxCell>
        <mxCell id="bIHqknEUlhPa7KbJLbSP-5" value="" style="rounded=0;whiteSpace=wrap;html=1;strokeColor=#ADADAD;fillColor=#E6E6E6;" parent="1" vertex="1">
          <mxGeometry x="80" y="1039" width="160" height="80" as="geometry" />
        </mxCell>
        <mxCell id="bIHqknEUlhPa7KbJLbSP-6" value="" style="rounded=0;whiteSpace=wrap;html=1;strokeColor=#ADADAD;fillColor=#E6E6E6;" parent="1" vertex="1">
          <mxGeometry x="80" y="1119" width="80" height="320" as="geometry" />
        </mxCell>
        <mxCell id="bIHqknEUlhPa7KbJLbSP-7" value="" style="rounded=0;whiteSpace=wrap;html=1;strokeColor=#ADADAD;fillColor=#E6E6E6;" parent="1" vertex="1">
          <mxGeometry x="160" y="1119" width="80" height="320" as="geometry" />
        </mxCell>
        <mxCell id="bIHqknEUlhPa7KbJLbSP-9" value="" style="rounded=0;whiteSpace=wrap;html=1;strokeColor=#ADADAD;fillColor=#E6E6E6;" parent="1" vertex="1">
          <mxGeometry x="80" y="1439" width="160" height="80" as="geometry" />
        </mxCell>
        <mxCell id="bIHqknEUlhPa7KbJLbSP-10" value="" style="rounded=0;whiteSpace=wrap;html=1;strokeColor=#ADADAD;fillColor=#E6E6E6;" parent="1" vertex="1">
          <mxGeometry x="440" y="1039" width="160" height="80" as="geometry" />
        </mxCell>
        <mxCell id="bIHqknEUlhPa7KbJLbSP-11" value="" style="rounded=0;whiteSpace=wrap;html=1;strokeColor=#ADADAD;fillColor=#E6E6E6;" parent="1" vertex="1">
          <mxGeometry x="440" y="1119" width="80" height="320" as="geometry" />
        </mxCell>
        <mxCell id="bIHqknEUlhPa7KbJLbSP-12" value="" style="rounded=0;whiteSpace=wrap;html=1;strokeColor=#ADADAD;fillColor=#E6E6E6;" parent="1" vertex="1">
          <mxGeometry x="520" y="1119" width="80" height="320" as="geometry" />
        </mxCell>
        <mxCell id="bIHqknEUlhPa7KbJLbSP-13" value="" style="rounded=0;whiteSpace=wrap;html=1;strokeColor=#ADADAD;fillColor=#E6E6E6;" parent="1" vertex="1">
          <mxGeometry x="440" y="1439" width="160" height="80" as="geometry" />
        </mxCell>
        <mxCell id="bIHqknEUlhPa7KbJLbSP-14" value="" style="rounded=0;whiteSpace=wrap;html=1;strokeColor=#ADADAD;fillColor=#E6E6E6;" parent="1" vertex="1">
          <mxGeometry x="800" y="1039" width="160" height="80" as="geometry" />
        </mxCell>
        <mxCell id="bIHqknEUlhPa7KbJLbSP-15" value="" style="rounded=0;whiteSpace=wrap;html=1;strokeColor=#ADADAD;fillColor=#E6E6E6;" parent="1" vertex="1">
          <mxGeometry x="800" y="1119" width="80" height="320" as="geometry" />
        </mxCell>
        <mxCell id="bIHqknEUlhPa7KbJLbSP-16" value="" style="rounded=0;whiteSpace=wrap;html=1;strokeColor=#ADADAD;fillColor=#E6E6E6;" parent="1" vertex="1">
          <mxGeometry x="880" y="1119" width="80" height="320" as="geometry" />
        </mxCell>
        <mxCell id="bIHqknEUlhPa7KbJLbSP-17" value="" style="rounded=0;whiteSpace=wrap;html=1;strokeColor=#ADADAD;fillColor=#E6E6E6;" parent="1" vertex="1">
          <mxGeometry x="800" y="1439" width="160" height="80" as="geometry" />
        </mxCell>
        <mxCell id="bIHqknEUlhPa7KbJLbSP-19" value="switch" style="rounded=1;whiteSpace=wrap;html=1;fillColor=#CFFFCC;shadow=1;" parent="1" vertex="1">
          <mxGeometry x="130" y="1239" width="60" height="40" as="geometry" />
        </mxCell>
        <mxCell id="bIHqknEUlhPa7KbJLbSP-20" value="switch" style="rounded=1;whiteSpace=wrap;html=1;fillColor=#CFFFCC;shadow=1;" parent="1" vertex="1">
          <mxGeometry x="503" y="1099" width="60" height="40" as="geometry" />
        </mxCell>
        <mxCell id="uSxF9huYmtwieOau0xIX-1" style="edgeStyle=orthogonalEdgeStyle;rounded=0;orthogonalLoop=1;jettySize=auto;html=1;entryX=1;entryY=0.5;entryDx=0;entryDy=0;strokeColor=#3503FF;" parent="1" source="bIHqknEUlhPa7KbJLbSP-21" target="bIHqknEUlhPa7KbJLbSP-19" edge="1">
          <mxGeometry relative="1" as="geometry">
            <mxPoint x="310" y="1409" as="targetPoint" />
            <Array as="points">
              <mxPoint x="320" y="1409" />
              <mxPoint x="320" y="1259" />
            </Array>
          </mxGeometry>
        </mxCell>
        <mxCell id="1SRZn88oiBS8jIDgHkdG-3" style="edgeStyle=orthogonalEdgeStyle;rounded=0;orthogonalLoop=1;jettySize=auto;html=1;entryX=0;entryY=0.5;entryDx=0;entryDy=0;strokeColor=#0000FF;" parent="1" source="bIHqknEUlhPa7KbJLbSP-21" target="bIHqknEUlhPa7KbJLbSP-20" edge="1">
          <mxGeometry relative="1" as="geometry">
            <mxPoint x="420" y="1129" as="targetPoint" />
            <Array as="points">
              <mxPoint x="480" y="1119" />
            </Array>
          </mxGeometry>
        </mxCell>
        <mxCell id="1SRZn88oiBS8jIDgHkdG-5" style="edgeStyle=orthogonalEdgeStyle;rounded=0;orthogonalLoop=1;jettySize=auto;html=1;entryX=0;entryY=0.5;entryDx=0;entryDy=0;strokeColor=#0000FF;" parent="1" source="bIHqknEUlhPa7KbJLbSP-21" target="gEAlV7s_ojDVb4IUpl8j-11" edge="1">
          <mxGeometry relative="1" as="geometry" />
        </mxCell>
        <mxCell id="bIHqknEUlhPa7KbJLbSP-21" value="switch" style="rounded=1;whiteSpace=wrap;html=1;fillColor=#CFFFCC;shadow=1;" parent="1" vertex="1">
          <mxGeometry x="450" y="1389" width="60" height="40" as="geometry" />
        </mxCell>
        <mxCell id="gEAlV7s_ojDVb4IUpl8j-14" style="edgeStyle=orthogonalEdgeStyle;rounded=0;orthogonalLoop=1;jettySize=auto;html=1;entryX=0.5;entryY=0;entryDx=0;entryDy=0;strokeColor=#FF9933;" parent="1" source="bIHqknEUlhPa7KbJLbSP-22" target="lYnqB2vnanFgomII5n8k-1" edge="1">
          <mxGeometry relative="1" as="geometry" />
        </mxCell>
        <mxCell id="qOQLAQJ_Tv6yrgzTofTZ-4" style="edgeStyle=orthogonalEdgeStyle;rounded=0;orthogonalLoop=1;jettySize=auto;html=1;entryX=0.5;entryY=0;entryDx=0;entryDy=0;entryPerimeter=0;strokeColor=#FF9933;" parent="1" source="bIHqknEUlhPa7KbJLbSP-22" target="qOQLAQJ_Tv6yrgzTofTZ-5" edge="1">
          <mxGeometry relative="1" as="geometry">
            <mxPoint x="880" y="959" as="targetPoint" />
          </mxGeometry>
        </mxCell>
        <mxCell id="bIHqknEUlhPa7KbJLbSP-22" value="switch" style="rounded=1;whiteSpace=wrap;html=1;fillColor=#CFFFCC;shadow=1;" parent="1" vertex="1">
          <mxGeometry x="930" y="799" width="60" height="40" as="geometry" />
        </mxCell>
        <mxCell id="So-Kfl4MGTzWJUbIg1cU-4" style="edgeStyle=orthogonalEdgeStyle;rounded=0;orthogonalLoop=1;jettySize=auto;html=1;strokeColor=#CC00CC;" parent="1" source="lYnqB2vnanFgomII5n8k-1" target="gEAlV7s_ojDVb4IUpl8j-9" edge="1">
          <mxGeometry relative="1" as="geometry">
            <mxPoint x="750" y="1249" as="targetPoint" />
            <Array as="points">
              <mxPoint x="960" y="999" />
              <mxPoint x="760" y="999" />
              <mxPoint x="760" y="1249" />
            </Array>
          </mxGeometry>
        </mxCell>
        <mxCell id="lYnqB2vnanFgomII5n8k-1" value="Router&lt;br style=&quot;border-color: var(--border-color);&quot;&gt;(DOM_NET)" style="rounded=1;whiteSpace=wrap;html=1;fillColor=#E8FEFF;shadow=1;" parent="1" vertex="1">
          <mxGeometry x="920" y="879" width="80" height="80" as="geometry" />
        </mxCell>
        <mxCell id="gEAlV7s_ojDVb4IUpl8j-8" value="switch" style="rounded=1;whiteSpace=wrap;html=1;fillColor=#CFFFCC;shadow=1;" parent="1" vertex="1">
          <mxGeometry x="850" y="1159" width="60" height="40" as="geometry" />
        </mxCell>
        <mxCell id="So-Kfl4MGTzWJUbIg1cU-5" style="edgeStyle=orthogonalEdgeStyle;rounded=0;orthogonalLoop=1;jettySize=auto;html=1;exitX=0;exitY=0.75;exitDx=0;exitDy=0;strokeColor=#CC00CC;" parent="1" source="gEAlV7s_ojDVb4IUpl8j-9" target="So-Kfl4MGTzWJUbIg1cU-1" edge="1">
          <mxGeometry relative="1" as="geometry">
            <mxPoint x="120" y="969" as="targetPoint" />
            <Array as="points">
              <mxPoint x="720" y="1259" />
              <mxPoint x="720" y="959" />
            </Array>
          </mxGeometry>
        </mxCell>
        <mxCell id="gEAlV7s_ojDVb4IUpl8j-9" value="switch" style="rounded=1;whiteSpace=wrap;html=1;fillColor=#CFFFCC;shadow=1;" parent="1" vertex="1">
          <mxGeometry x="850" y="1229" width="60" height="40" as="geometry" />
        </mxCell>
        <mxCell id="1SRZn88oiBS8jIDgHkdG-6" style="edgeStyle=orthogonalEdgeStyle;rounded=0;orthogonalLoop=1;jettySize=auto;html=1;entryX=1;entryY=0.5;entryDx=0;entryDy=0;strokeColor=#0000FF;" parent="1" source="gEAlV7s_ojDVb4IUpl8j-11" target="gEAlV7s_ojDVb4IUpl8j-8" edge="1">
          <mxGeometry relative="1" as="geometry">
            <mxPoint x="1000" y="1179" as="targetPoint" />
            <Array as="points">
              <mxPoint x="1000" y="1409" />
              <mxPoint x="1000" y="1179" />
            </Array>
          </mxGeometry>
        </mxCell>
        <mxCell id="gEAlV7s_ojDVb4IUpl8j-11" value="switch" style="rounded=1;whiteSpace=wrap;html=1;fillColor=#CFFFCC;shadow=1;" parent="1" vertex="1">
          <mxGeometry x="850" y="1389" width="60" height="40" as="geometry" />
        </mxCell>
        <mxCell id="qOQLAQJ_Tv6yrgzTofTZ-2" value="喫煙室" style="rounded=0;whiteSpace=wrap;html=1;strokeColor=#ADADAD;fillColor=#D5E8D4;" parent="1" vertex="1">
          <mxGeometry x="30" y="159" width="120" height="120" as="geometry" />
        </mxCell>
        <mxCell id="qOQLAQJ_Tv6yrgzTofTZ-5" value="&lt;font style=&quot;font-size: 24px;&quot;&gt;?&lt;/font&gt;" style="strokeWidth=2;html=1;shape=mxgraph.flowchart.start_2;whiteSpace=wrap;fillColor=#FFCFCF;" parent="1" vertex="1">
          <mxGeometry x="860" y="884" width="40" height="40" as="geometry" />
        </mxCell>
        <mxCell id="qOQLAQJ_Tv6yrgzTofTZ-6" value="黒ケーブル&lt;br&gt;行先不明" style="whiteSpace=wrap;html=1;shape=mxgraph.basic.roundRectCallout;dx=14;dy=0;size=7;boundedLbl=1;fillColor=#FFDDD9;strokeColor=#FF0303;" parent="1" vertex="1">
          <mxGeometry x="810" y="909" width="90" height="50" as="geometry" />
        </mxCell>
        <mxCell id="qOQLAQJ_Tv6yrgzTofTZ-8" value="プリンタ" style="rounded=1;whiteSpace=wrap;html=1;fillColor=#FFFAB8;shadow=1;" parent="1" vertex="1">
          <mxGeometry x="600" y="319" width="80" height="80" as="geometry" />
        </mxCell>
        <mxCell id="13bjJGE-04V8xGXv543n-1" value="" style="shape=mxgraph.cisco.computers_and_peripherals.printer;html=1;pointerEvents=1;dashed=0;fillColor=#036897;strokeColor=#ffffff;strokeWidth=2;verticalLabelPosition=bottom;verticalAlign=top;align=center;outlineConnect=0;" parent="1" vertex="1">
          <mxGeometry x="610" y="395" width="91" height="34" as="geometry" />
        </mxCell>
        <mxCell id="13bjJGE-04V8xGXv543n-2" value="冷蔵庫" style="html=1;shape=mxgraph.basic.isocube;isoAngle=15;fillColor=#D4EFFF;strokeColor=#B3B3B3;" parent="1" vertex="1">
          <mxGeometry x="750" y="789" width="100" height="135" as="geometry" />
        </mxCell>
        <mxCell id="13bjJGE-04V8xGXv543n-3" style="edgeStyle=orthogonalEdgeStyle;rounded=0;orthogonalLoop=1;jettySize=auto;html=1;exitX=0.5;exitY=1;exitDx=0;exitDy=0;" parent="1" edge="1">
          <mxGeometry relative="1" as="geometry">
            <mxPoint x="800" y="879" as="sourcePoint" />
            <mxPoint x="800" y="879" as="targetPoint" />
          </mxGeometry>
        </mxCell>
        <mxCell id="hpY79acTeA1bFj-iVBpf-2" value="" style="group" parent="1" vertex="1" connectable="0">
          <mxGeometry x="875" y="199" width="170" height="40" as="geometry" />
        </mxCell>
        <mxCell id="hpY79acTeA1bFj-iVBpf-3" value="" style="verticalLabelPosition=bottom;verticalAlign=top;html=1;shape=process;whiteSpace=wrap;rounded=1;size=0.05555555555555555;arcSize=6;" parent="hpY79acTeA1bFj-iVBpf-2" vertex="1">
          <mxGeometry width="170" height="40" as="geometry" />
        </mxCell>
        <mxCell id="hpY79acTeA1bFj-iVBpf-4" value="&lt;font style=&quot;font-size: 12px;&quot;&gt;総務部フロア&lt;br&gt;③&lt;br&gt;&lt;/font&gt;" style="text;strokeColor=none;align=center;fillColor=none;html=1;verticalAlign=middle;whiteSpace=wrap;rounded=0;" parent="hpY79acTeA1bFj-iVBpf-2" vertex="1">
          <mxGeometry x="13.222222222222221" y="10" width="151.11111111111111" height="20" as="geometry" />
        </mxCell>
        <mxCell id="hpY79acTeA1bFj-iVBpf-8" style="edgeStyle=orthogonalEdgeStyle;rounded=0;orthogonalLoop=1;jettySize=auto;html=1;entryX=0.5;entryY=0;entryDx=0;entryDy=0;strokeColor=#FF9933;" parent="1" source="hpY79acTeA1bFj-iVBpf-3" target="bIHqknEUlhPa7KbJLbSP-22" edge="1">
          <mxGeometry relative="1" as="geometry">
            <mxPoint x="950" y="619" as="targetPoint" />
          </mxGeometry>
        </mxCell>
        <mxCell id="c8upQtS8fUMg8wYHRUaJ-1" value="ジオング" style="text;html=1;strokeColor=#82b366;fillColor=#F9FFA8;align=center;verticalAlign=middle;whiteSpace=wrap;overflow=hidden;" parent="1" vertex="1">
          <mxGeometry x="930" y="429" width="60" height="20" as="geometry" />
        </mxCell>
        <mxCell id="sdugs0LmdoouB7Rgyg5V-2" value="" style="group" parent="1" vertex="1" connectable="0">
          <mxGeometry x="555" y="199" width="170" height="40" as="geometry" />
        </mxCell>
        <mxCell id="sdugs0LmdoouB7Rgyg5V-3" value="" style="verticalLabelPosition=bottom;verticalAlign=top;html=1;shape=process;whiteSpace=wrap;rounded=1;size=0.05555555555555555;arcSize=6;" parent="sdugs0LmdoouB7Rgyg5V-2" vertex="1">
          <mxGeometry width="170" height="40" as="geometry" />
        </mxCell>
        <mxCell id="sdugs0LmdoouB7Rgyg5V-4" value="&lt;font style=&quot;font-size: 12px;&quot;&gt;総務部フロア&lt;br&gt;②&lt;br&gt;&lt;/font&gt;" style="text;strokeColor=none;align=center;fillColor=none;html=1;verticalAlign=middle;whiteSpace=wrap;rounded=0;" parent="sdugs0LmdoouB7Rgyg5V-2" vertex="1">
          <mxGeometry x="10.222222222222221" y="10" width="151.11111111111111" height="20" as="geometry" />
        </mxCell>
        <mxCell id="sdugs0LmdoouB7Rgyg5V-6" style="edgeStyle=orthogonalEdgeStyle;rounded=0;orthogonalLoop=1;jettySize=auto;html=1;entryX=0.5;entryY=0;entryDx=0;entryDy=0;strokeColor=#FF9900;" parent="1" source="sdugs0LmdoouB7Rgyg5V-3" target="qOQLAQJ_Tv6yrgzTofTZ-8" edge="1">
          <mxGeometry relative="1" as="geometry" />
        </mxCell>
        <mxCell id="XU0MXxJnTNw7B2g3Z5so-2" style="edgeStyle=orthogonalEdgeStyle;rounded=0;orthogonalLoop=1;jettySize=auto;html=1;strokeColor=#0000FF;exitX=0.167;exitY=1.067;exitDx=0;exitDy=0;exitPerimeter=0;" parent="1" source="XU0MXxJnTNw7B2g3Z5so-1" target="bIHqknEUlhPa7KbJLbSP-21" edge="1">
          <mxGeometry relative="1" as="geometry">
            <mxPoint x="420" y="1359" as="targetPoint" />
            <Array as="points">
              <mxPoint x="360" y="1389" />
            </Array>
          </mxGeometry>
        </mxCell>
        <mxCell id="XU0MXxJnTNw7B2g3Z5so-1" value="&lt;font style=&quot;font-size: 10px;&quot;&gt;&lt;b&gt;黒から青に接続&lt;br&gt;（接続コネクタ）&lt;br&gt;&lt;/b&gt;&lt;/font&gt;" style="rounded=0;whiteSpace=wrap;html=1;strokeWidth=4;" parent="1" vertex="1">
          <mxGeometry x="340" y="669" width="120" height="40" as="geometry" />
        </mxCell>
        <mxCell id="So-Kfl4MGTzWJUbIg1cU-1" value="Server" style="rounded=1;whiteSpace=wrap;html=1;fillColor=#FFCCFF;shadow=1;" parent="1" vertex="1">
          <mxGeometry x="30" y="919" width="80" height="80" as="geometry" />
        </mxCell>
        <mxCell id="So-Kfl4MGTzWJUbIg1cU-3" value="停止済み。&lt;br&gt;現在未使用" style="shape=callout;whiteSpace=wrap;html=1;perimeter=calloutPerimeter;position2=0;size=30;position=0.08;base=30;" parent="1" vertex="1">
          <mxGeometry x="90" y="899" width="120" height="60" as="geometry" />
        </mxCell>
        <mxCell id="NE6DsKVhhA9Lt6noo2Dq-2" value="" style="shape=table;startSize=0;container=1;collapsible=0;childLayout=tableLayout;fontSize=16;fontColor=#ffffff;movable=0;resizable=0;rotatable=0;deletable=0;editable=0;locked=1;connectable=0;" parent="1" vertex="1">
          <mxGeometry x="40" y="1480" width="510" height="150" as="geometry" />
        </mxCell>
        <mxCell id="NE6DsKVhhA9Lt6noo2Dq-3" value="" style="shape=tableRow;horizontal=0;startSize=0;swimlaneHead=0;swimlaneBody=0;strokeColor=inherit;top=0;left=0;bottom=0;right=0;collapsible=0;dropTarget=0;fillColor=none;points=[[0,0.5],[1,0.5]];portConstraint=eastwest;fontSize=16;movable=0;resizable=0;rotatable=0;deletable=0;editable=0;locked=1;connectable=0;" parent="NE6DsKVhhA9Lt6noo2Dq-2" vertex="1">
          <mxGeometry width="510" height="30" as="geometry" />
        </mxCell>
        <mxCell id="NE6DsKVhhA9Lt6noo2Dq-4" value="&lt;font color=&quot;#ffffff&quot; style=&quot;font-size: 12px;&quot;&gt;矢印&lt;/font&gt;" style="shape=partialRectangle;html=1;whiteSpace=wrap;connectable=0;strokeColor=inherit;overflow=hidden;fillColor=#000099;top=0;left=0;bottom=0;right=0;pointerEvents=1;fontSize=16;movable=0;resizable=0;rotatable=0;deletable=0;editable=0;locked=1;" parent="NE6DsKVhhA9Lt6noo2Dq-3" vertex="1">
          <mxGeometry width="140" height="30" as="geometry">
            <mxRectangle width="140" height="30" as="alternateBounds" />
          </mxGeometry>
        </mxCell>
        <mxCell id="NE6DsKVhhA9Lt6noo2Dq-5" value="&lt;font color=&quot;#ffffff&quot; style=&quot;font-size: 12px;&quot;&gt;ネットワーク&lt;/font&gt;" style="shape=partialRectangle;html=1;whiteSpace=wrap;connectable=0;strokeColor=inherit;overflow=hidden;fillColor=#000099;top=0;left=0;bottom=0;right=0;pointerEvents=1;fontSize=16;movable=0;resizable=0;rotatable=0;deletable=0;editable=0;locked=1;" parent="NE6DsKVhhA9Lt6noo2Dq-3" vertex="1">
          <mxGeometry x="140" width="135" height="30" as="geometry">
            <mxRectangle width="135" height="30" as="alternateBounds" />
          </mxGeometry>
        </mxCell>
        <mxCell id="NE6DsKVhhA9Lt6noo2Dq-6" value="&lt;font color=&quot;#ffffff&quot; style=&quot;font-size: 12px;&quot;&gt;用途&lt;/font&gt;" style="shape=partialRectangle;html=1;whiteSpace=wrap;connectable=0;strokeColor=inherit;overflow=hidden;fillColor=#000099;top=0;left=0;bottom=0;right=0;pointerEvents=1;fontSize=16;movable=0;resizable=0;rotatable=0;deletable=0;editable=0;locked=1;" parent="NE6DsKVhhA9Lt6noo2Dq-3" vertex="1">
          <mxGeometry x="275" width="235" height="30" as="geometry">
            <mxRectangle width="235" height="30" as="alternateBounds" />
          </mxGeometry>
        </mxCell>
        <mxCell id="NE6DsKVhhA9Lt6noo2Dq-7" value="" style="shape=tableRow;horizontal=0;startSize=0;swimlaneHead=0;swimlaneBody=0;strokeColor=inherit;top=0;left=0;bottom=0;right=0;collapsible=0;dropTarget=0;fillColor=none;points=[[0,0.5],[1,0.5]];portConstraint=eastwest;fontSize=16;movable=0;resizable=0;rotatable=0;deletable=0;editable=0;locked=1;connectable=0;" parent="NE6DsKVhhA9Lt6noo2Dq-2" vertex="1">
          <mxGeometry y="30" width="510" height="40" as="geometry" />
        </mxCell>
        <mxCell id="NE6DsKVhhA9Lt6noo2Dq-8" value="" style="shape=partialRectangle;html=1;whiteSpace=wrap;connectable=0;strokeColor=inherit;overflow=hidden;fillColor=none;top=0;left=0;bottom=0;right=0;pointerEvents=1;fontSize=16;movable=0;resizable=0;rotatable=0;deletable=0;editable=0;locked=1;" parent="NE6DsKVhhA9Lt6noo2Dq-7" vertex="1">
          <mxGeometry width="140" height="40" as="geometry">
            <mxRectangle width="140" height="40" as="alternateBounds" />
          </mxGeometry>
        </mxCell>
        <mxCell id="NE6DsKVhhA9Lt6noo2Dq-9" value="&lt;font style=&quot;font-size: 12px;&quot;&gt;192.168.11.0/24&lt;/font&gt;" style="shape=partialRectangle;html=1;whiteSpace=wrap;connectable=0;strokeColor=inherit;overflow=hidden;fillColor=none;top=0;left=0;bottom=0;right=0;pointerEvents=1;fontSize=16;movable=0;resizable=0;rotatable=0;deletable=0;editable=0;locked=1;" parent="NE6DsKVhhA9Lt6noo2Dq-7" vertex="1">
          <mxGeometry x="140" width="135" height="40" as="geometry">
            <mxRectangle width="135" height="40" as="alternateBounds" />
          </mxGeometry>
        </mxCell>
        <mxCell id="NE6DsKVhhA9Lt6noo2Dq-10" value="&lt;span style=&quot;font-size: 12px;&quot;&gt;大元の社内LAN&lt;/span&gt;" style="shape=partialRectangle;html=1;whiteSpace=wrap;connectable=0;strokeColor=inherit;overflow=hidden;fillColor=none;top=0;left=0;bottom=0;right=0;pointerEvents=1;fontSize=16;movable=0;resizable=0;rotatable=0;deletable=0;editable=0;locked=1;" parent="NE6DsKVhhA9Lt6noo2Dq-7" vertex="1">
          <mxGeometry x="275" width="235" height="40" as="geometry">
            <mxRectangle width="235" height="40" as="alternateBounds" />
          </mxGeometry>
        </mxCell>
        <mxCell id="NE6DsKVhhA9Lt6noo2Dq-11" value="" style="shape=tableRow;horizontal=0;startSize=0;swimlaneHead=0;swimlaneBody=0;strokeColor=inherit;top=0;left=0;bottom=0;right=0;collapsible=0;dropTarget=0;fillColor=none;points=[[0,0.5],[1,0.5]];portConstraint=eastwest;fontSize=16;movable=0;resizable=0;rotatable=0;deletable=0;editable=0;locked=1;connectable=0;" parent="NE6DsKVhhA9Lt6noo2Dq-2" vertex="1">
          <mxGeometry y="70" width="510" height="40" as="geometry" />
        </mxCell>
        <mxCell id="NE6DsKVhhA9Lt6noo2Dq-12" value="" style="shape=partialRectangle;html=1;whiteSpace=wrap;connectable=0;strokeColor=inherit;overflow=hidden;fillColor=none;top=0;left=0;bottom=0;right=0;pointerEvents=1;fontSize=16;movable=0;resizable=0;rotatable=0;deletable=0;editable=0;locked=1;" parent="NE6DsKVhhA9Lt6noo2Dq-11" vertex="1">
          <mxGeometry width="140" height="40" as="geometry">
            <mxRectangle width="140" height="40" as="alternateBounds" />
          </mxGeometry>
        </mxCell>
        <mxCell id="NE6DsKVhhA9Lt6noo2Dq-13" value="&lt;font style=&quot;font-size: 12px;&quot;&gt;192.168.129.0/24&lt;/font&gt;" style="shape=partialRectangle;html=1;whiteSpace=wrap;connectable=0;strokeColor=inherit;overflow=hidden;fillColor=none;top=0;left=0;bottom=0;right=0;pointerEvents=1;fontSize=16;movable=0;resizable=0;rotatable=0;deletable=0;editable=0;locked=1;" parent="NE6DsKVhhA9Lt6noo2Dq-11" vertex="1">
          <mxGeometry x="140" width="135" height="40" as="geometry">
            <mxRectangle width="135" height="40" as="alternateBounds" />
          </mxGeometry>
        </mxCell>
        <mxCell id="NE6DsKVhhA9Lt6noo2Dq-14" value="&lt;font style=&quot;font-size: 12px;&quot;&gt;社内PC接続用&lt;/font&gt;" style="shape=partialRectangle;html=1;whiteSpace=wrap;connectable=0;strokeColor=inherit;overflow=hidden;fillColor=none;top=0;left=0;bottom=0;right=0;pointerEvents=1;fontSize=16;movable=0;resizable=0;rotatable=0;deletable=0;editable=0;locked=1;" parent="NE6DsKVhhA9Lt6noo2Dq-11" vertex="1">
          <mxGeometry x="275" width="235" height="40" as="geometry">
            <mxRectangle width="235" height="40" as="alternateBounds" />
          </mxGeometry>
        </mxCell>
        <mxCell id="NE6DsKVhhA9Lt6noo2Dq-15" style="shape=tableRow;horizontal=0;startSize=0;swimlaneHead=0;swimlaneBody=0;strokeColor=inherit;top=0;left=0;bottom=0;right=0;collapsible=0;dropTarget=0;fillColor=none;points=[[0,0.5],[1,0.5]];portConstraint=eastwest;fontSize=16;movable=0;resizable=0;rotatable=0;deletable=0;editable=0;locked=1;connectable=0;" parent="NE6DsKVhhA9Lt6noo2Dq-2" vertex="1">
          <mxGeometry y="110" width="510" height="40" as="geometry" />
        </mxCell>
        <mxCell id="NE6DsKVhhA9Lt6noo2Dq-16" style="shape=partialRectangle;html=1;whiteSpace=wrap;connectable=0;strokeColor=inherit;overflow=hidden;fillColor=none;top=0;left=0;bottom=0;right=0;pointerEvents=1;fontSize=16;movable=0;resizable=0;rotatable=0;deletable=0;editable=0;locked=1;" parent="NE6DsKVhhA9Lt6noo2Dq-15" vertex="1">
          <mxGeometry width="140" height="40" as="geometry">
            <mxRectangle width="140" height="40" as="alternateBounds" />
          </mxGeometry>
        </mxCell>
        <mxCell id="NE6DsKVhhA9Lt6noo2Dq-17" value="&lt;font style=&quot;font-size: 12px;&quot;&gt;192.168.132.0/24&lt;/font&gt;" style="shape=partialRectangle;html=1;whiteSpace=wrap;connectable=0;strokeColor=inherit;overflow=hidden;fillColor=none;top=0;left=0;bottom=0;right=0;pointerEvents=1;fontSize=16;movable=0;resizable=0;rotatable=0;deletable=0;editable=0;locked=1;" parent="NE6DsKVhhA9Lt6noo2Dq-15" vertex="1">
          <mxGeometry x="140" width="135" height="40" as="geometry">
            <mxRectangle width="135" height="40" as="alternateBounds" />
          </mxGeometry>
        </mxCell>
        <mxCell id="NE6DsKVhhA9Lt6noo2Dq-18" value="&lt;span style=&quot;font-size: 12px;&quot;&gt;飯塚さん使用&lt;/span&gt;" style="shape=partialRectangle;html=1;whiteSpace=wrap;connectable=0;strokeColor=inherit;overflow=hidden;fillColor=none;top=0;left=0;bottom=0;right=0;pointerEvents=1;fontSize=16;movable=0;resizable=0;rotatable=0;deletable=0;editable=0;locked=1;" parent="NE6DsKVhhA9Lt6noo2Dq-15" vertex="1">
          <mxGeometry x="275" width="235" height="40" as="geometry">
            <mxRectangle width="235" height="40" as="alternateBounds" />
          </mxGeometry>
        </mxCell>
        <mxCell id="NE6DsKVhhA9Lt6noo2Dq-1" value="" style="group;movable=0;resizable=0;rotatable=0;deletable=0;editable=0;locked=1;connectable=0;" parent="1" vertex="1" connectable="0">
          <mxGeometry x="40" y="1480" width="510" height="150" as="geometry" />
        </mxCell>
        <mxCell id="NE6DsKVhhA9Lt6noo2Dq-19" value="" style="endArrow=classic;html=1;rounded=0;strokeColor=#FF8800;movable=0;resizable=0;rotatable=0;deletable=0;editable=0;locked=1;connectable=0;" parent="NE6DsKVhhA9Lt6noo2Dq-1" edge="1">
          <mxGeometry width="50" height="50" relative="1" as="geometry">
            <mxPoint x="50" y="50" as="sourcePoint" />
            <mxPoint x="95" y="50" as="targetPoint" />
          </mxGeometry>
        </mxCell>
        <mxCell id="NE6DsKVhhA9Lt6noo2Dq-20" value="" style="endArrow=classic;html=1;rounded=0;strokeColor=#0000FF;movable=0;resizable=0;rotatable=0;deletable=0;editable=0;locked=1;connectable=0;" parent="NE6DsKVhhA9Lt6noo2Dq-1" edge="1">
          <mxGeometry width="50" height="50" relative="1" as="geometry">
            <mxPoint x="50" y="90" as="sourcePoint" />
            <mxPoint x="95" y="90" as="targetPoint" />
          </mxGeometry>
        </mxCell>
        <mxCell id="NE6DsKVhhA9Lt6noo2Dq-21" value="" style="endArrow=classic;html=1;rounded=0;strokeColor=#CC00CC;movable=0;resizable=0;rotatable=0;deletable=0;editable=0;locked=1;connectable=0;" parent="NE6DsKVhhA9Lt6noo2Dq-1" edge="1">
          <mxGeometry width="50" height="50" relative="1" as="geometry">
            <mxPoint x="50" y="130" as="sourcePoint" />
            <mxPoint x="95" y="130" as="targetPoint" />
          </mxGeometry>
        </mxCell>
        <mxCell id="LLaIxr_odQ8A4KpuFa80-1" value="&lt;span style=&quot;font-size: 18px;&quot;&gt;&lt;b&gt;システム部フロア&lt;/b&gt;&lt;/span&gt;" style="rounded=0;whiteSpace=wrap;html=1;dashed=1;dashPattern=1 2;" parent="1" vertex="1">
          <mxGeometry x="57.50000000000006" y="34" width="288.54" height="60" as="geometry" />
        </mxCell>
      </root>
    </mxGraphModel>
  </diagram>
  <diagram id="3BLYQTZjDaTI3n_mB8rx" name="会議室フロア">
    <mxGraphModel dx="949" dy="725" grid="0" gridSize="10" guides="1" tooltips="1" connect="1" arrows="1" fold="1" page="1" pageScale="1" pageWidth="1169" pageHeight="1654" math="0" shadow="0">
      <root>
        <mxCell id="0" />
        <mxCell id="1" parent="0" />
        <mxCell id="8mvNWOUShiyV3jlNdGn2-1" value="" style="group" parent="1" vertex="1" connectable="0">
          <mxGeometry x="23" y="934" width="180" height="60" as="geometry" />
        </mxCell>
        <mxCell id="8mvNWOUShiyV3jlNdGn2-2" value="" style="verticalLabelPosition=bottom;verticalAlign=top;html=1;shape=process;whiteSpace=wrap;rounded=1;size=0.05555555555555555;arcSize=6;" parent="8mvNWOUShiyV3jlNdGn2-1" vertex="1">
          <mxGeometry width="180" height="60" as="geometry" />
        </mxCell>
        <mxCell id="8mvNWOUShiyV3jlNdGn2-3" value="&lt;font style=&quot;font-size: 14px;&quot;&gt;総務部フロア&lt;br&gt;&lt;/font&gt;" style="text;strokeColor=none;align=center;fillColor=none;html=1;verticalAlign=middle;whiteSpace=wrap;rounded=0;" parent="8mvNWOUShiyV3jlNdGn2-1" vertex="1">
          <mxGeometry x="14" y="15" width="160" height="30" as="geometry" />
        </mxCell>
        <mxCell id="JiogWfzTGQgOX-ASM1sR-13" style="edgeStyle=orthogonalEdgeStyle;rounded=0;orthogonalLoop=1;jettySize=auto;html=1;entryX=0.121;entryY=0.992;entryDx=0;entryDy=0;entryPerimeter=0;strokeColor=#2B00FF;" parent="1" source="1sVU_fT6FvJMrTI2Pgma-1" target="JiogWfzTGQgOX-ASM1sR-12" edge="1">
          <mxGeometry relative="1" as="geometry" />
        </mxCell>
        <mxCell id="daj02hoprhzAMpGb3ygQ-1" style="edgeStyle=orthogonalEdgeStyle;rounded=0;orthogonalLoop=1;jettySize=auto;html=1;entryX=0.874;entryY=0.994;entryDx=0;entryDy=0;entryPerimeter=0;strokeColor=#621FFF;" parent="1" source="1sVU_fT6FvJMrTI2Pgma-1" target="quqitbKEcwIj7_WaIsDb-1" edge="1">
          <mxGeometry relative="1" as="geometry">
            <mxPoint x="235" y="340" as="targetPoint" />
            <Array as="points">
              <mxPoint x="113" y="340" />
              <mxPoint x="838" y="340" />
            </Array>
          </mxGeometry>
        </mxCell>
        <mxCell id="1sVU_fT6FvJMrTI2Pgma-1" value="switch" style="rounded=1;whiteSpace=wrap;html=1;fillColor=#CFFFCC;shadow=1;" parent="1" vertex="1">
          <mxGeometry x="83" y="765" width="60" height="40" as="geometry" />
        </mxCell>
        <mxCell id="JiogWfzTGQgOX-ASM1sR-1" value="" style="rounded=0;whiteSpace=wrap;html=1;strokeColor=#ADADAD;fillColor=#E6E6E6;" parent="1" vertex="1">
          <mxGeometry x="223" y="475" width="80" height="240" as="geometry" />
        </mxCell>
        <mxCell id="JiogWfzTGQgOX-ASM1sR-2" value="" style="rounded=0;whiteSpace=wrap;html=1;strokeColor=#ADADAD;fillColor=#E6E6E6;" parent="1" vertex="1">
          <mxGeometry x="383" y="365" width="80" height="140" as="geometry" />
        </mxCell>
        <mxCell id="JiogWfzTGQgOX-ASM1sR-3" value="" style="rounded=0;whiteSpace=wrap;html=1;strokeColor=#ADADAD;fillColor=#E6E6E6;" parent="1" vertex="1">
          <mxGeometry x="503" y="365" width="80" height="140" as="geometry" />
        </mxCell>
        <mxCell id="JiogWfzTGQgOX-ASM1sR-4" value="" style="rounded=0;whiteSpace=wrap;html=1;strokeColor=#ADADAD;fillColor=#E6E6E6;" parent="1" vertex="1">
          <mxGeometry x="623" y="365" width="80" height="140" as="geometry" />
        </mxCell>
        <mxCell id="JiogWfzTGQgOX-ASM1sR-5" value="" style="rounded=0;whiteSpace=wrap;html=1;strokeColor=#ADADAD;fillColor=#E6E6E6;" parent="1" vertex="1">
          <mxGeometry x="383" y="525" width="80" height="140" as="geometry" />
        </mxCell>
        <mxCell id="JiogWfzTGQgOX-ASM1sR-6" value="" style="rounded=0;whiteSpace=wrap;html=1;strokeColor=#ADADAD;fillColor=#E6E6E6;" parent="1" vertex="1">
          <mxGeometry x="503" y="525" width="80" height="140" as="geometry" />
        </mxCell>
        <mxCell id="JiogWfzTGQgOX-ASM1sR-7" value="" style="rounded=0;whiteSpace=wrap;html=1;strokeColor=#ADADAD;fillColor=#E6E6E6;" parent="1" vertex="1">
          <mxGeometry x="623" y="525" width="80" height="140" as="geometry" />
        </mxCell>
        <mxCell id="JiogWfzTGQgOX-ASM1sR-8" value="" style="rounded=0;whiteSpace=wrap;html=1;strokeColor=#ADADAD;fillColor=#E6E6E6;" parent="1" vertex="1">
          <mxGeometry x="383" y="685" width="80" height="140" as="geometry" />
        </mxCell>
        <mxCell id="JiogWfzTGQgOX-ASM1sR-9" value="" style="rounded=0;whiteSpace=wrap;html=1;strokeColor=#ADADAD;fillColor=#E6E6E6;" parent="1" vertex="1">
          <mxGeometry x="503" y="685" width="80" height="140" as="geometry" />
        </mxCell>
        <mxCell id="JiogWfzTGQgOX-ASM1sR-10" value="" style="rounded=0;whiteSpace=wrap;html=1;strokeColor=#ADADAD;fillColor=#E6E6E6;" parent="1" vertex="1">
          <mxGeometry x="623" y="685" width="80" height="140" as="geometry" />
        </mxCell>
        <mxCell id="JiogWfzTGQgOX-ASM1sR-11" style="edgeStyle=orthogonalEdgeStyle;rounded=0;orthogonalLoop=1;jettySize=auto;html=1;entryX=0.5;entryY=1;entryDx=0;entryDy=0;strokeColor=#1100FF;" parent="1" source="8mvNWOUShiyV3jlNdGn2-2" target="1sVU_fT6FvJMrTI2Pgma-1" edge="1">
          <mxGeometry relative="1" as="geometry">
            <mxPoint x="273" y="835" as="targetPoint" />
          </mxGeometry>
        </mxCell>
        <mxCell id="JiogWfzTGQgOX-ASM1sR-12" value="&lt;font style=&quot;font-size: 18px;&quot;&gt;会長室&lt;/font&gt;" style="rounded=0;whiteSpace=wrap;html=1;strokeColor=#d79b00;fillColor=#FFF6E3;" parent="1" vertex="1">
          <mxGeometry x="63" y="165" width="410" height="120" as="geometry" />
        </mxCell>
        <mxCell id="quqitbKEcwIj7_WaIsDb-1" value="&lt;font style=&quot;font-size: 18px;&quot;&gt;応接室&lt;/font&gt;" style="rounded=0;whiteSpace=wrap;html=1;strokeColor=#d6b656;fillColor=#FFF8E6;" parent="1" vertex="1">
          <mxGeometry x="473" y="165" width="417" height="120" as="geometry" />
        </mxCell>
        <mxCell id="HCpw7HK0wjenVE9mNYM3-1" value="ギレン" style="text;html=1;strokeColor=#82b366;fillColor=#F9FFA8;align=center;verticalAlign=middle;whiteSpace=wrap;overflow=hidden;" parent="1" vertex="1">
          <mxGeometry x="83" y="845" width="60" height="20" as="geometry" />
        </mxCell>
        <mxCell id="axTVdhKjXpT_zBFK4qBT-1" value="&lt;span style=&quot;font-size: 18px;&quot;&gt;&lt;b&gt;会議室フロア&lt;/b&gt;&lt;/span&gt;" style="rounded=0;whiteSpace=wrap;html=1;dashed=1;dashPattern=1 2;" parent="1" vertex="1">
          <mxGeometry x="57.50000000000006" y="34" width="288.54" height="60" as="geometry" />
        </mxCell>
      </root>
    </mxGraphModel>
  </diagram>
</mxfile>
